<svg width="101" height="28" viewBox="0 0 101 28" fill="none" xmlns="http://www.w3.org/2000/svg">
<path d="M46.6016 16.0312H41.8359L40.7656 19H39.2188L43.5625 7.625H44.875L49.2266 19H47.6875L46.6016 16.0312ZM42.2891 14.7969H46.1562L44.2188 9.47656L42.2891 14.7969ZM50.1797 14.7031C50.1797 13.4062 50.487 12.3646 51.1016 11.5781C51.7161 10.7865 52.5208 10.3906 53.5156 10.3906C54.5052 10.3906 55.2891 10.7292 55.8672 11.4062V7H57.3125V19H55.9844L55.9141 18.0938C55.3359 18.8021 54.5312 19.1562 53.5 19.1562C52.5208 19.1562 51.7214 18.7552 51.1016 17.9531C50.487 17.151 50.1797 16.1042 50.1797 14.8125V14.7031ZM51.625 14.8672C51.625 15.8255 51.8229 16.5755 52.2188 17.1172C52.6146 17.6589 53.1615 17.9297 53.8594 17.9297C54.776 17.9297 55.4453 17.5182 55.8672 16.6953V12.8125C55.4349 12.0156 54.7708 11.6172 53.875 11.6172C53.1667 11.6172 52.6146 11.8906 52.2188 12.4375C51.8229 12.9844 51.625 13.7943 51.625 14.8672ZM62.3516 17.0391L64.4453 10.5469H65.9219L62.8906 19H61.7891L58.7266 10.5469H60.2031L62.3516 17.0391ZM70.5938 17.9766C71.1094 17.9766 71.5599 17.8203 71.9453 17.5078C72.3307 17.1953 72.5443 16.8047 72.5859 16.3359H73.9531C73.9271 16.8203 73.7604 17.2812 73.4531 17.7188C73.1458 18.1562 72.7344 18.5052 72.2188 18.7656C71.7083 19.026 71.1667 19.1562 70.5938 19.1562C69.4427 19.1562 68.526 18.7734 67.8438 18.0078C67.1667 17.237 66.8281 16.1849 66.8281 14.8516V14.6094C66.8281 13.7865 66.9792 13.0547 67.2812 12.4141C67.5833 11.7734 68.0156 11.276 68.5781 10.9219C69.1458 10.5677 69.8151 10.3906 70.5859 10.3906C71.5339 10.3906 72.3203 10.6745 72.9453 11.2422C73.5755 11.8099 73.9115 12.5469 73.9531 13.4531H72.5859C72.5443 12.9062 72.3359 12.4583 71.9609 12.1094C71.5911 11.7552 71.1328 11.5781 70.5859 11.5781C69.8516 11.5781 69.2812 11.8438 68.875 12.375C68.474 12.901 68.2734 13.6641 68.2734 14.6641V14.9375C68.2734 15.9115 68.474 16.6615 68.875 17.1875C69.276 17.7135 69.849 17.9766 70.5938 17.9766ZM80.7969 19C80.7135 18.8333 80.6458 18.5365 80.5938 18.1094C79.9219 18.8073 79.1198 19.1562 78.1875 19.1562C77.3542 19.1562 76.6693 18.9219 76.1328 18.4531C75.6016 17.9792 75.3359 17.3802 75.3359 16.6562C75.3359 15.776 75.6693 15.0938 76.3359 14.6094C77.0078 14.1198 77.9505 13.875 79.1641 13.875H80.5703V13.2109C80.5703 12.7057 80.4193 12.3047 80.1172 12.0078C79.8151 11.7057 79.3698 11.5547 78.7812 11.5547C78.2656 11.5547 77.8333 11.6849 77.4844 11.9453C77.1354 12.2057 76.9609 12.5208 76.9609 12.8906H75.5078C75.5078 12.4688 75.6562 12.0625 75.9531 11.6719C76.2552 11.276 76.6615 10.9635 77.1719 10.7344C77.6875 10.5052 78.2526 10.3906 78.8672 10.3906C79.8411 10.3906 80.6042 10.6354 81.1562 11.125C81.7083 11.6094 81.9948 12.2786 82.0156 13.1328V17.0234C82.0156 17.7995 82.1146 18.4167 82.3125 18.875V19H80.7969ZM78.3984 17.8984C78.8516 17.8984 79.2812 17.7812 79.6875 17.5469C80.0938 17.3125 80.388 17.0078 80.5703 16.6328V14.8984H79.4375C77.6667 14.8984 76.7812 15.4167 76.7812 16.4531C76.7812 16.9062 76.9323 17.2604 77.2344 17.5156C77.5365 17.7708 77.9245 17.8984 78.3984 17.8984ZM89.2031 16.7578C89.2031 16.3672 89.0547 16.0651 88.7578 15.8516C88.4661 15.6328 87.9531 15.4453 87.2188 15.2891C86.4896 15.1328 85.9089 14.9453 85.4766 14.7266C85.0495 14.5078 84.7318 14.2474 84.5234 13.9453C84.3203 13.6432 84.2188 13.2839 84.2188 12.8672C84.2188 12.1745 84.5104 11.5885 85.0938 11.1094C85.6823 10.6302 86.4323 10.3906 87.3438 10.3906C88.3021 10.3906 89.0781 10.638 89.6719 11.1328C90.2708 11.6276 90.5703 12.2604 90.5703 13.0312H89.1172C89.1172 12.6354 88.9479 12.2943 88.6094 12.0078C88.276 11.7214 87.8542 11.5781 87.3438 11.5781C86.8177 11.5781 86.4062 11.6927 86.1094 11.9219C85.8125 12.151 85.6641 12.4505 85.6641 12.8203C85.6641 13.1693 85.8021 13.4323 86.0781 13.6094C86.3542 13.7865 86.8516 13.9557 87.5703 14.1172C88.2943 14.2786 88.8802 14.4714 89.3281 14.6953C89.776 14.9193 90.1068 15.1901 90.3203 15.5078C90.5391 15.8203 90.6484 16.2031 90.6484 16.6562C90.6484 17.4115 90.3464 18.0182 89.7422 18.4766C89.138 18.9297 88.3542 19.1562 87.3906 19.1562C86.7135 19.1562 86.1146 19.0365 85.5938 18.7969C85.0729 18.5573 84.6641 18.224 84.3672 17.7969C84.0755 17.3646 83.9297 16.8984 83.9297 16.3984H85.375C85.401 16.8828 85.5938 17.2682 85.9531 17.5547C86.3177 17.8359 86.7969 17.9766 87.3906 17.9766C87.9375 17.9766 88.375 17.8672 88.7031 17.6484C89.0365 17.4245 89.2031 17.1276 89.2031 16.7578ZM93.9766 11.5703C94.6172 10.7839 95.4505 10.3906 96.4766 10.3906C98.263 10.3906 99.1641 11.3984 99.1797 13.4141V19H97.7344V13.4062C97.7292 12.7969 97.5885 12.3464 97.3125 12.0547C97.0417 11.763 96.6172 11.6172 96.0391 11.6172C95.5703 11.6172 95.1589 11.7422 94.8047 11.9922C94.4505 12.2422 94.1745 12.5703 93.9766 12.9766V19H92.5312V7H93.9766V11.5703Z" fill="#333333"/>
<path d="M14 28C21.732 28 28 21.732 28 14C28 6.26801 21.732 0 14 0C6.26801 0 0 6.26801 0 14C0 21.732 6.26801 28 14 28Z" fill="#5FA96F"/>
<path d="M6.33044 21.7912L14.1826 4.62598L21.9739 21.7912H18.9913L14.1217 10.6521L9.49566 21.7912H6.33044Z" fill="white"/>
<path d="M3.89563 10.5908C4.13911 11.3821 4.80867 12.2343 6.02606 13.1473H15.2174L14.1217 10.5908H3.89563ZM6.87824 14.7908L15.9478 14.8517L16.9826 17.2256H8.33911C7.42606 16.0691 6.7565 15.156 6.87824 14.7908ZM16.9217 10.5908H24.2869C24.0435 11.443 23.4348 12.2952 22.5217 13.1473H18.0782L16.9217 10.5908ZM18.8087 14.7908H21.4261C21.3652 15.2169 20.8782 15.9473 20.1478 16.9213H19.7826L18.8087 14.7908Z" fill="#1D314B"/>
</svg>
