<svg width="60" height="60" viewBox="0 0 60 60" fill="none" xmlns="http://www.w3.org/2000/svg">
<g clip-path="url(#clip0)">
<path d="M49.0875 40.3172L42.6575 38.0798C42.1901 37.9148 41.6625 38.0473 41.325 38.4148C38.1725 41.8549 34.15 43.7498 30 43.7498C25.85 43.7498 21.8275 41.8547 18.675 38.4148C18.335 38.0473 17.8125 37.9174 17.3425 38.0798L10.9125 40.3172C4.38504 42.5872 0 48.7548 0 55.6647V57.4998C0 58.1898 0.560039 58.7498 1.25004 58.7498H58.7501C59.4401 58.7498 60.0001 58.1898 60.0001 57.4998V55.6647C60 48.7522 55.615 42.5847 49.0875 40.3172ZM57.5 56.2497H2.49996V55.6647C2.49996 49.8172 6.21 44.5972 11.7325 42.6772L17.4025 40.7047C20.9475 44.2872 25.3924 46.2496 30 46.2496C34.6076 46.2496 39.0525 44.2871 42.5975 40.7047L48.2675 42.6772C53.79 44.5972 57.5 49.8172 57.5 55.6647V56.2497Z" fill="#00E676"/>
<path d="M44.9925 16.575C44.9975 16.4675 45 16.3575 45 16.25C45 7.9775 38.2725 1.25 30 1.25C21.7275 1.25 15 7.9775 15 16.25C15 16.3575 15.0024 16.4675 15.0075 16.575C13.5174 17.39 12.5 19.6674 12.5 22.5C12.5 25.9775 14.035 28.62 16.095 28.745C18.3675 36.275 23.84 41.25 30 41.25C36.1599 41.25 41.6325 36.275 43.905 28.745C45.965 28.62 47.4999 25.9775 47.4999 22.5C47.4999 19.6674 46.4825 17.39 44.9925 16.575ZM43.6725 26.195C43.3325 25.985 42.915 25.95 42.5424 26.1C42.1749 26.25 41.8999 26.5674 41.8024 26.955C40.0524 34.01 35.31 38.75 30 38.75C24.69 38.75 19.9475 34.01 18.1974 26.955C18.0999 26.5674 17.7874 26.28 17.4174 26.1275C17.28 26.07 17.13 26.045 16.9774 26.045C16.7224 26.045 16.4623 26.1175 16.2499 26.25C15.9375 26.25 15 24.92 15 22.5C15 20.2074 15.8424 18.8949 16.1949 18.7599C16.2075 18.7624 16.2225 18.765 16.2324 18.765C16.5999 18.7925 16.9774 18.6699 17.2425 18.405C17.5074 18.1374 17.64 17.765 17.6 17.3925L17.565 17.0799C17.535 16.8049 17.4999 16.5324 17.4999 16.2499C17.4999 9.3575 23.1075 3.74996 30 3.74996C36.8925 3.74996 42.5 9.3575 42.5 16.25C42.5 16.5325 42.465 16.805 42.435 17.0775L42.3999 17.39C42.3624 17.765 42.4924 18.1375 42.7575 18.4025C43.025 18.67 43.3974 18.795 43.7675 18.765C43.7775 18.7625 43.7925 18.7625 43.805 18.7599C44.1575 18.8949 45 20.2074 45 22.5C45 24.92 44.0825 26.25 43.6725 26.195Z" fill="#00E676"/>
<path d="M30 11.25C27.055 11.25 25 13.305 25 16.25C25 16.94 25.56 17.5001 26.25 17.5001C26.94 17.5001 27.5001 16.94 27.5001 16.25C27.5001 13.995 29.2476 13.7501 30 13.7501C30.7525 13.7501 32.5 13.9951 32.5 16.25C32.5 18.3476 32.0375 19.305 30.5975 20.1825C27.8174 21.8825 27.3524 24.13 27.515 25.19C27.61 25.805 28.135 26.2275 28.7399 26.2275C28.79 26.2275 28.8425 26.2225 28.895 26.2175C29.5625 26.1401 30.0449 25.5225 29.99 24.8501C29.9875 24.7976 29.9075 23.5351 31.9025 22.3175C34.1024 20.9726 35 19.215 35 16.25C35.0001 13.305 32.9451 11.25 30 11.25Z" fill="#00E676"/>
<path d="M28.75 31.2501C29.4404 31.2501 30.0001 30.6904 30.0001 30C30.0001 29.3097 29.4404 28.75 28.75 28.75C28.0597 28.75 27.5 29.3097 27.5 30C27.5 30.6904 28.0597 31.2501 28.75 31.2501Z" fill="#00E676"/>
</g>
<defs>
<clipPath id="clip0">
<rect width="60" height="60" fill="white"/>
</clipPath>
</defs>
</svg>
