<svg width="172" height="62" viewBox="0 0 172 62" fill="none" xmlns="http://www.w3.org/2000/svg">
<g filter="url(#filter0_d)">
<rect x="1" width="168" height="58" rx="10" fill="white"/>
<rect x="1.5" y="0.5" width="167" height="57" rx="9.5" stroke="#F3F3F3"/>
</g>
<path d="M76.2656 25.293C76.1602 26.1953 75.8262 26.8926 75.2637 27.3848C74.7051 27.873 73.9609 28.1172 73.0312 28.1172C72.0234 28.1172 71.2148 27.7559 70.6055 27.0332C70 26.3105 69.6973 25.3438 69.6973 24.1328V23.3125C69.6973 22.5195 69.8379 21.8223 70.1191 21.2207C70.4043 20.6191 70.8066 20.1582 71.3262 19.8379C71.8457 19.5137 72.4473 19.3516 73.1309 19.3516C74.0371 19.3516 74.7637 19.6055 75.3105 20.1133C75.8574 20.6172 76.1758 21.3164 76.2656 22.2109H75.1348C75.0371 21.5312 74.8242 21.0391 74.4961 20.7344C74.1719 20.4297 73.7168 20.2773 73.1309 20.2773C72.4121 20.2773 71.8477 20.543 71.4375 21.0742C71.0312 21.6055 70.8281 22.3613 70.8281 23.3418V24.168C70.8281 25.0938 71.0215 25.8301 71.4082 26.377C71.7949 26.9238 72.3359 27.1973 73.0312 27.1973C73.6562 27.1973 74.1348 27.0566 74.4668 26.7754C74.8027 26.4902 75.0254 25.9961 75.1348 25.293H76.2656ZM79.6113 25.2988H78.8203V28H77.7305V21.6602H78.8203V24.3438H79.5293L81.6621 21.6602H82.9746L80.4668 24.707L83.1855 28H81.8086L79.6113 25.2988ZM88.0312 28C87.9688 27.875 87.918 27.6523 87.8789 27.332C87.375 27.8555 86.7734 28.1172 86.0742 28.1172C85.4492 28.1172 84.9355 27.9414 84.5332 27.5898C84.1348 27.2344 83.9355 26.7852 83.9355 26.2422C83.9355 25.582 84.1855 25.0703 84.6855 24.707C85.1895 24.3398 85.8965 24.1562 86.8066 24.1562H87.8613V23.6582C87.8613 23.2793 87.748 22.9785 87.5215 22.7559C87.2949 22.5293 86.9609 22.416 86.5195 22.416C86.1328 22.416 85.8086 22.5137 85.5469 22.709C85.2852 22.9043 85.1543 23.1406 85.1543 23.418H84.0645C84.0645 23.1016 84.1758 22.7969 84.3984 22.5039C84.625 22.207 84.9297 21.9727 85.3125 21.8008C85.6992 21.6289 86.123 21.543 86.584 21.543C87.3145 21.543 87.8867 21.7266 88.3008 22.0938C88.7148 22.457 88.9297 22.959 88.9453 23.5996V26.5176C88.9453 27.0996 89.0195 27.5625 89.168 27.9062V28H88.0312ZM86.2324 27.1738C86.5723 27.1738 86.8945 27.0859 87.1992 26.9102C87.5039 26.7344 87.7246 26.5059 87.8613 26.2246V24.9238H87.0117C85.6836 24.9238 85.0195 25.3125 85.0195 26.0898C85.0195 26.4297 85.1328 26.6953 85.3594 26.8867C85.5859 27.0781 85.877 27.1738 86.2324 27.1738ZM95.4316 28H94.3418V25.7031C93.8652 25.8281 93.377 25.8906 92.877 25.8906C92.084 25.8906 91.4785 25.6875 91.0605 25.2812C90.6465 24.875 90.4355 24.2969 90.4277 23.5469V21.6543H91.5117V23.582C91.5312 24.5273 91.9863 25 92.877 25C93.377 25 93.8652 24.9375 94.3418 24.8125V21.6602H95.4316V28ZM101.086 28C101.023 27.875 100.973 27.6523 100.934 27.332C100.43 27.8555 99.8281 28.1172 99.1289 28.1172C98.5039 28.1172 97.9902 27.9414 97.5879 27.5898C97.1895 27.2344 96.9902 26.7852 96.9902 26.2422C96.9902 25.582 97.2402 25.0703 97.7402 24.707C98.2441 24.3398 98.9512 24.1562 99.8613 24.1562H100.916V23.6582C100.916 23.2793 100.803 22.9785 100.576 22.7559C100.35 22.5293 100.016 22.416 99.5742 22.416C99.1875 22.416 98.8633 22.5137 98.6016 22.709C98.3398 22.9043 98.209 23.1406 98.209 23.418H97.1191C97.1191 23.1016 97.2305 22.7969 97.4531 22.5039C97.6797 22.207 97.9844 21.9727 98.3672 21.8008C98.7539 21.6289 99.1777 21.543 99.6387 21.543C100.369 21.543 100.941 21.7266 101.355 22.0938C101.77 22.457 101.984 22.959 102 23.5996V26.5176C102 27.0996 102.074 27.5625 102.223 27.9062V28H101.086ZM99.2871 27.1738C99.627 27.1738 99.9492 27.0859 100.254 26.9102C100.559 26.7344 100.779 26.5059 100.916 26.2246V24.9238H100.066C98.7383 24.9238 98.0742 25.3125 98.0742 26.0898C98.0742 26.4297 98.1875 26.6953 98.4141 26.8867C98.6406 27.0781 98.9316 27.1738 99.2871 27.1738ZM108.316 22.5391H106.189V28H105.105V22.5391H103.02V21.6602H108.316V22.5391ZM110.555 23.8457H112.201C112.92 23.8535 113.488 24.041 113.906 24.4082C114.324 24.7754 114.533 25.2734 114.533 25.9023C114.533 26.5352 114.318 27.043 113.889 27.4258C113.459 27.8086 112.881 28 112.154 28H109.471V21.6602H110.555V23.8457ZM110.555 24.7305V27.1152H112.166C112.572 27.1152 112.887 27.0117 113.109 26.8047C113.332 26.5938 113.443 26.3066 113.443 25.9434C113.443 25.5918 113.334 25.3047 113.115 25.082C112.9 24.8555 112.598 24.7383 112.207 24.7305H110.555ZM118.963 28V21.6602H121.436C122.279 21.6602 122.926 21.8086 123.375 22.1055C123.828 22.3984 124.055 22.8301 124.055 23.4004C124.055 23.6934 123.967 23.959 123.791 24.1973C123.615 24.4316 123.355 24.6113 123.012 24.7363C123.395 24.8262 123.701 25.002 123.932 25.2637C124.166 25.5254 124.283 25.8379 124.283 26.2012C124.283 26.7832 124.068 27.2285 123.639 27.5371C123.213 27.8457 122.609 28 121.828 28H118.963ZM120.047 25.2168V27.127H121.84C122.293 27.127 122.631 27.043 122.854 26.875C123.08 26.707 123.193 26.4707 123.193 26.166C123.193 25.5332 122.729 25.2168 121.799 25.2168H120.047ZM120.047 24.3496H121.447C122.463 24.3496 122.971 24.0527 122.971 23.459C122.971 22.8652 122.49 22.5586 121.529 22.5391H120.047V24.3496Z" fill="#333333"/>
<path d="M32.7399 24.2933C30.3728 28.4011 31.8776 34.6348 34.4953 38.4145C35.8019 40.3042 37.1248 42.0004 38.9367 42.0004C38.9709 42.0004 39.0051 41.9998 39.0402 41.9984C39.8915 41.9644 40.5067 41.7023 41.1015 41.4491C41.7692 41.1645 42.4599 40.8702 43.5432 40.8702C44.5737 40.8702 45.2314 41.1549 45.8674 41.4302C46.4943 41.7013 47.1399 41.9819 48.0939 41.964C50.1349 41.926 51.388 40.0956 52.4936 38.4809C53.6473 36.7949 54.226 35.158 54.4213 34.5324L54.4292 34.5075C54.4664 34.3964 54.4139 34.275 54.3073 34.2261C54.3043 34.2247 54.2935 34.2202 54.2905 34.2189C53.9311 34.0719 50.7784 32.6733 50.7452 28.8613C50.7145 25.7642 53.1104 24.1241 53.5908 23.8269L53.6132 23.8129C53.6653 23.7794 53.7016 23.7263 53.7139 23.6655C53.7262 23.6048 53.7133 23.5416 53.6784 23.4906C52.0247 21.0705 49.49 20.7057 48.4695 20.6619C48.3214 20.6471 48.1686 20.6396 48.0151 20.6396C46.8165 20.6396 45.6683 21.0923 44.7459 21.4561C44.1091 21.7071 43.5591 21.924 43.1798 21.924C42.7536 21.924 42.2004 21.7045 41.5599 21.4504C40.7034 21.1104 39.7326 20.7252 38.7049 20.7252C38.6803 20.7252 38.6562 20.7255 38.6324 20.7259C36.2428 20.7611 33.9848 22.1282 32.7399 24.2933Z" fill="#4C4C4C"/>
<path d="M48.4716 14.0002C47.0245 14.0591 45.2886 14.9499 44.251 16.1652C43.3693 17.1867 42.5079 18.8898 42.7348 20.6065C42.749 20.7139 42.8364 20.7968 42.9445 20.8052C43.0422 20.8128 43.1419 20.8167 43.2412 20.8168C44.6562 20.8168 46.1826 20.0339 47.225 18.7735C48.3221 17.4425 48.8769 15.7344 48.7091 14.2044C48.6959 14.0845 48.5904 13.9955 48.4716 14.0002Z" fill="#4C4C4C"/>
<path d="M77.1588 40.9319H75.5028L74.6142 38.1046H71.4638L70.6156 40.9319H69L72.11 31.2383H74.0487L77.1588 40.9319ZM74.3315 36.8929L73.5237 34.3483C73.4429 34.106 73.2813 33.5001 73.039 32.5308H72.9986C72.9178 32.9347 72.7563 33.5405 72.5543 34.3483L71.7465 36.8929H74.3315Z" fill="#333333"/>
<path d="M85.156 37.3779C85.156 38.5492 84.8329 39.5186 84.1867 40.2052C83.6212 40.8111 82.8942 41.1342 82.046 41.1342C81.117 41.1342 80.4708 40.8111 80.0669 40.1244V43.7999H78.5321V36.247C78.5321 35.52 78.5321 34.7526 78.4917 33.9448H79.865L79.9457 35.0353H79.9861C80.5112 34.1871 81.2786 33.7832 82.3287 33.7832C83.1365 33.7832 83.8232 34.1063 84.3886 34.7526C84.9137 35.4392 85.156 36.2874 85.156 37.3779ZM83.5808 37.4183C83.5808 36.7317 83.4193 36.1662 83.1365 35.7219C82.8134 35.2776 82.3691 35.0353 81.8037 35.0353C81.4402 35.0353 81.0767 35.1565 80.7535 35.3988C80.4304 35.6411 80.2285 36.0047 80.1477 36.4086C80.1073 36.6105 80.0669 36.7721 80.0669 36.8932V38.0645C80.0669 38.5896 80.2285 38.9935 80.5516 39.357C80.8747 39.7205 81.2786 39.8821 81.7633 39.8821C82.3287 39.8821 82.8134 39.6397 83.1365 39.1955C83.4193 38.7512 83.5808 38.1453 83.5808 37.4183Z" fill="#333333"/>
<path d="M93.1935 37.3779C93.1935 38.5492 92.8704 39.5186 92.2241 40.2052C91.6587 40.8111 90.9317 41.1342 90.0835 41.1342C89.1545 41.1342 88.5083 40.8111 88.1044 40.1244H88.064V43.7999H86.5292V36.247C86.5292 35.52 86.5292 34.7526 86.4888 33.9448H87.862L87.9428 35.0353H87.9832C88.5083 34.1871 89.2757 33.7832 90.3258 33.7832C91.1336 33.7832 91.8202 34.1063 92.3857 34.7526C92.9108 35.4392 93.1935 36.2874 93.1935 37.3779ZM91.6183 37.4183C91.6183 36.7317 91.4567 36.1662 91.174 35.7219C90.8509 35.2776 90.4066 35.0353 89.8411 35.0353C89.4372 35.0353 89.1141 35.1565 88.791 35.3988C88.4679 35.6411 88.2659 36.0047 88.1852 36.4086C88.1448 36.6105 88.1044 36.7721 88.1044 36.8932V38.0645C88.1044 38.5896 88.2659 38.9935 88.5891 39.357C88.9122 39.7205 89.3161 39.8821 89.8008 39.8821C90.3662 39.8821 90.8509 39.6397 91.174 39.1955C91.4567 38.7512 91.6183 38.1453 91.6183 37.4183Z" fill="#333333"/>
<path d="M102.201 38.2262C102.201 39.034 101.918 39.7206 101.352 40.2457C100.706 40.8111 99.858 41.0939 98.7271 41.0939C97.6769 41.0939 96.8691 40.8919 96.2229 40.488L96.5864 39.1955C97.273 39.5994 98.0001 39.8014 98.8482 39.8014C99.4137 39.8014 99.8984 39.6802 100.222 39.3975C100.545 39.1147 100.706 38.7916 100.706 38.3473C100.706 37.9434 100.585 37.6203 100.302 37.3376C100.02 37.0549 99.5753 36.8125 98.9694 36.5702C97.273 35.9239 96.4249 34.995 96.4249 33.7833C96.4249 32.9755 96.7076 32.3292 97.3134 31.8446C97.9193 31.3195 98.6867 31.0771 99.6964 31.0771C100.585 31.0771 101.312 31.2387 101.877 31.5214L101.474 32.7735C100.908 32.4908 100.302 32.3292 99.6157 32.3292C99.0502 32.3292 98.6463 32.4504 98.3232 32.7331C98.0808 32.9755 97.9193 33.2582 97.9193 33.6217C97.9193 33.9852 98.0808 34.3083 98.3636 34.5507C98.6059 34.793 99.0906 35.0354 99.7772 35.3181C100.625 35.6412 101.231 36.0451 101.635 36.4894C101.999 37.0145 102.201 37.5799 102.201 38.2262Z" fill="#333333"/>
<path d="M107.33 35.1164H105.634V38.5092C105.634 39.3574 105.917 39.8017 106.522 39.8017C106.805 39.8017 107.047 39.7613 107.209 39.7209L107.249 40.8922C106.926 41.0134 106.522 41.0538 106.038 41.0538C105.432 41.0538 104.947 40.8518 104.584 40.4883C104.22 40.1248 104.059 39.4786 104.059 38.59V35.0761H103.049V33.9047H104.059V32.6123L105.593 32.168V33.9047H107.29V35.1164H107.33Z" fill="#333333"/>
<path d="M115.045 37.4183C115.045 38.5088 114.721 39.357 114.116 40.0436C113.469 40.7707 112.621 41.0938 111.571 41.0938C110.561 41.0938 109.713 40.7707 109.107 40.084C108.501 39.3974 108.178 38.5492 108.178 37.4991C108.178 36.4086 108.501 35.52 109.107 34.8333C109.753 34.1467 110.561 33.7832 111.652 33.7832C112.662 33.7832 113.51 34.1063 114.116 34.793C114.721 35.52 115.045 36.3682 115.045 37.4183ZM113.429 37.4587C113.429 36.8125 113.308 36.247 113.025 35.8027C112.702 35.2372 112.217 34.9545 111.652 34.9545C111.046 34.9545 110.561 35.2372 110.238 35.8027C109.955 36.247 109.834 36.8125 109.834 37.4991C109.834 38.1453 109.955 38.7108 110.238 39.1551C110.561 39.7205 111.046 40.0033 111.652 40.0033C112.258 40.0033 112.702 39.7205 113.025 39.1551C113.267 38.63 113.429 38.1049 113.429 37.4587Z" fill="#333333"/>
<path d="M120.093 35.3183C119.932 35.2779 119.77 35.2779 119.609 35.2779C119.043 35.2779 118.639 35.4799 118.357 35.8838C118.114 36.2473 117.953 36.6916 117.953 37.257V40.9325H116.418V36.1665C116.418 35.3587 116.418 34.6317 116.377 33.9854H117.71L117.751 35.3183H117.791C117.953 34.874 118.195 34.4701 118.558 34.2278C118.922 33.9854 119.286 33.8643 119.689 33.8643C119.851 33.8643 119.972 33.8643 120.093 33.9047V35.3183Z" fill="#333333"/>
<path d="M127 37.1356C127 37.4183 127 37.6606 126.96 37.8222H122.315C122.315 38.5088 122.557 39.0339 123.002 39.3974C123.405 39.7205 123.89 39.8821 124.536 39.8821C125.223 39.8821 125.869 39.7609 126.435 39.559L126.677 40.6495C126.031 40.9322 125.223 41.0938 124.334 41.0938C123.244 41.0938 122.396 40.7707 121.79 40.1244C121.184 39.4782 120.861 38.63 120.861 37.5395C120.861 36.4893 121.144 35.6008 121.709 34.9141C122.315 34.1871 123.123 33.7832 124.132 33.7832C125.142 33.7832 125.91 34.1467 126.435 34.9141C126.798 35.52 127 36.247 127 37.1356ZM125.546 36.7317C125.546 36.2874 125.465 35.8835 125.263 35.52C124.981 35.0757 124.577 34.8737 124.011 34.8737C123.486 34.8737 123.082 35.0757 122.759 35.52C122.517 35.8431 122.355 36.247 122.315 36.7317H125.546Z" fill="#333333"/>
<defs>
<filter id="filter0_d" x="0" y="0" width="172" height="62" filterUnits="userSpaceOnUse" color-interpolation-filters="sRGB">
<feFlood flood-opacity="0" result="BackgroundImageFix"/>
<feColorMatrix in="SourceAlpha" type="matrix" values="0 0 0 0 0 0 0 0 0 0 0 0 0 0 0 0 0 0 127 0"/>
<feOffset dx="1" dy="2"/>
<feGaussianBlur stdDeviation="1"/>
<feColorMatrix type="matrix" values="0 0 0 0 0.854167 0 0 0 0 0.854167 0 0 0 0 0.854167 0 0 0 0.25 0"/>
<feBlend mode="normal" in2="BackgroundImageFix" result="effect1_dropShadow"/>
<feBlend mode="normal" in="SourceGraphic" in2="effect1_dropShadow" result="shape"/>
</filter>
</defs>
</svg>
