<svg width="22" height="22" viewBox="0 0 22 22" fill="none" xmlns="http://www.w3.org/2000/svg">
<path d="M22 11C22 17.0765 17.0747 22 11 22C4.92529 22 0 17.0765 0 11C0 4.92707 4.92529 0 11 0C17.0747 0 22 4.92707 22 11ZM11 13.2177C9.87319 13.2177 8.95971 14.1312 8.95971 15.258C8.95971 16.3849 9.87319 17.2984 11 17.2984C12.1268 17.2984 13.0403 16.3849 13.0403 15.258C13.0403 14.1312 12.1268 13.2177 11 13.2177ZM9.0629 5.88384L9.39194 11.9161C9.40734 12.1984 9.64067 12.4193 9.92338 12.4193H12.0766C12.3593 12.4193 12.5927 12.1984 12.6081 11.9161L12.9371 5.88384C12.9537 5.57895 12.711 5.32258 12.4057 5.32258H9.59434C9.28895 5.32258 9.04626 5.57895 9.0629 5.88384Z" fill="#FF8A8A"/>
</svg>
