<svg width="22" height="17" viewBox="0 0 22 17" fill="none" xmlns="http://www.w3.org/2000/svg">
<path d="M4.71428 10.1186H1.57143C0.703704 10.1186 0 10.8436 0 11.7376V14.9757C0 15.8698 0.703704 16.5948 1.57143 16.5948H4.71428C5.58201 16.5948 6.28572 15.8698 6.28572 14.9757V11.7376C6.28572 10.8436 5.58201 10.1186 4.71428 10.1186ZM12.5714 10.1186H9.42858C8.56082 10.1186 7.85716 10.8436 7.85716 11.7376V14.9757C7.85716 15.8698 8.56082 16.5948 9.42858 16.5948H12.5714C13.4392 16.5948 14.1428 15.8698 14.1428 14.9757V11.7376C14.1428 10.8436 13.4392 10.1186 12.5714 10.1186ZM20.4286 10.1186H17.2857C16.418 10.1186 15.7143 10.8436 15.7143 11.7376V14.9757C15.7143 15.8698 16.418 16.5948 17.2857 16.5948H20.4286C21.2963 16.5948 22 15.8698 22 14.9757V11.7376C22 10.8436 21.2963 10.1186 20.4286 10.1186ZM4.71428 0.404297H1.57143C0.703704 0.404297 0 1.12933 0 2.02334V5.26144C0 6.15545 0.703704 6.88049 1.57143 6.88049H4.71428C5.58201 6.88049 6.28572 6.15545 6.28572 5.26144V2.02334C6.28572 1.12933 5.58201 0.404297 4.71428 0.404297ZM12.5714 0.404297H9.42858C8.56082 0.404297 7.85716 1.12933 7.85716 2.02334V5.26144C7.85716 6.15545 8.56082 6.88049 9.42858 6.88049H12.5714C13.4392 6.88049 14.1428 6.15545 14.1428 5.26144V2.02334C14.1428 1.12933 13.4392 0.404297 12.5714 0.404297ZM20.4286 0.404297H17.2857C16.418 0.404297 15.7143 1.12933 15.7143 2.02334V5.26144C15.7143 6.15545 16.418 6.88049 17.2857 6.88049H20.4286C21.2963 6.88049 22 6.15545 22 5.26144V2.02334C22 1.12933 21.2963 0.404297 20.4286 0.404297Z" fill="#D2D2D2"/>
</svg>
