<svg width="22" height="22" viewBox="0 0 22 22" fill="none" xmlns="http://www.w3.org/2000/svg">
<path d="M11 0C4.92339 0 0 4.92339 0 11C0 17.0766 4.92339 22 11 22C17.0766 22 22 17.0766 22 11C22 4.92339 17.0766 0 11 0ZM11 19.871C6.09879 19.871 2.12903 15.9012 2.12903 11C2.12903 6.09879 6.09879 2.12903 11 2.12903C15.9012 2.12903 19.871 6.09879 19.871 11C19.871 15.9012 15.9012 19.871 11 19.871ZM15.5153 8.24113L12.7564 11L15.5153 13.7589C15.7238 13.9673 15.7238 14.3045 15.5153 14.5129L14.5129 15.5153C14.3045 15.7238 13.9673 15.7238 13.7589 15.5153L11 12.7564L8.24113 15.5153C8.03268 15.7238 7.69553 15.7238 7.48708 15.5153L6.48468 14.5129C6.27621 14.3045 6.27621 13.9673 6.48468 13.7589L9.24358 11L6.48468 8.24113C6.27621 8.03268 6.27621 7.69553 6.48468 7.48708L7.48708 6.48468C7.69553 6.27621 8.03268 6.27621 8.24113 6.48468L11 9.24358L13.7589 6.48468C13.9673 6.27621 14.3045 6.27621 14.5129 6.48468L15.5153 7.48708C15.7238 7.69553 15.7238 8.03268 15.5153 8.24113Z" fill="#FF8A8A" fill-opacity="0.5"/>
</svg>
