<svg width="60" height="60" viewBox="0 0 60 60" fill="none" xmlns="http://www.w3.org/2000/svg">
<g clip-path="url(#clip0)">
<path d="M17.1094 32.3457C17.1094 32.9925 16.5848 33.5176 15.9375 33.5176C15.2902 33.5176 14.7656 32.9925 14.7656 32.3457C14.7656 31.6984 15.2902 31.1738 15.9375 31.1738C16.5848 31.1738 17.1094 31.6984 17.1094 32.3457Z" fill="#00E676"/>
<path d="M4.02878 36.2061C5.63781 37.9831 5.57098 39.4013 5.46066 41.751C5.42724 42.4555 5.38971 43.2538 5.4039 44.1176C5.47256 48.3025 8.54048 48.9987 11.0055 49.5577C13.1025 50.0337 15.0837 50.4832 16.2721 52.5551C18.3059 56.1641 20.0344 59.0452 24.038 57.7626C25.3976 57.3263 26.3698 56.9139 27.1512 56.5825C28.3254 56.0844 28.9722 55.8098 29.9999 55.8098C31.0271 55.8098 31.6744 56.0844 32.8485 56.5825C33.6304 56.9139 34.6027 57.3268 35.9622 57.7626C37.8633 58.3719 39.4055 58.04 40.7143 56.8828C41.9145 55.8212 42.8511 54.0867 43.7277 52.5551C44.9165 50.4832 46.8972 50.0337 48.9943 49.5577C51.4593 48.9987 54.5272 48.3025 54.595 44.1176C54.6092 43.2534 54.5721 42.4546 54.5391 41.7501C54.4288 39.4008 54.3624 37.9827 55.9715 36.2061C58.4136 33.5094 60.003 31.8281 60.0002 29.9677C60.0034 27.9824 58.0479 26.0241 55.9715 23.7321C54.3624 21.9546 54.4288 20.5365 54.5391 18.1868C54.5721 17.4823 54.6096 16.6835 54.595 15.8197C54.5272 11.6353 51.4598 10.939 48.9947 10.3797C46.8977 9.90359 44.9165 9.45406 43.7277 7.38178C42.847 5.84416 41.9026 4.10558 40.7133 3.05364C39.3716 1.86758 37.8175 1.58056 35.9622 2.1752C34.6018 2.61144 33.6281 3.02389 32.8462 3.35576C31.6726 3.85335 31.0262 4.12755 30.0008 4.12801C28.9731 4.12755 28.3272 3.85335 27.1535 3.35576C26.3717 3.02389 25.3985 2.61144 24.038 2.17565C22.1827 1.58011 20.6286 1.86758 19.2869 3.05364C18.0866 4.11473 17.1491 5.85056 16.2721 7.38178C15.0842 9.45269 13.0256 9.90313 10.8462 10.3797C8.29558 10.9377 5.121 11.6321 5.05233 15.8197C5.0354 16.8698 5.12008 17.8132 5.19561 18.6455C5.38925 20.7992 5.50643 22.0993 4.02878 23.7321C1.62416 26.3867 -0.00638984 28.1019 1.88239e-05 29.965C-0.00684761 31.937 1.89286 33.8482 4.02878 36.2061ZM5.76599 25.305C7.93257 22.9113 7.73665 20.737 7.52974 18.4353C7.4565 17.6233 7.38051 16.7833 7.39562 15.8577C7.43224 13.6192 8.6334 13.2626 11.3466 12.6694C13.6871 12.1571 16.5998 11.5204 18.305 8.54815C20.028 5.74803 20.8016 3.59883 23.3225 4.40724C24.5814 4.81099 25.4616 5.18406 26.2385 5.51365C27.5001 6.04832 28.4961 6.47129 30.0003 6.47175C31.5027 6.47129 32.4993 6.04832 33.7609 5.51365C34.5377 5.18406 35.418 4.81099 36.6777 4.40724C39.1931 3.60112 39.9457 5.70637 41.6948 8.54815C43.3949 11.5117 46.2124 12.1512 48.4761 12.6653C51.1347 13.2686 52.2146 13.6037 52.2517 15.8581C52.2645 16.6482 52.2306 17.3747 52.1977 18.0774C52.0837 20.5113 51.9757 22.8106 54.2338 25.3054C55.9628 27.2138 57.6583 29.0128 57.656 29.965V29.9709C57.6588 30.9995 55.6336 33.0878 54.2338 34.6328C51.9757 37.1262 52.0837 39.4256 52.1977 41.8595C52.2306 42.5621 52.2645 43.2891 52.2517 44.0792C52.2146 46.3341 51.1343 46.6687 48.4756 47.272C46.212 47.7857 43.3949 48.4251 41.6948 51.3892L41.5364 51.6647C39.5543 55.1272 38.7404 56.1911 36.6777 55.531C35.4198 55.1272 34.54 54.7542 33.7636 54.425C32.5011 53.8895 31.5036 53.466 29.9999 53.466C28.4957 53.466 27.4982 53.889 26.2357 54.425C25.4598 54.7542 24.58 55.1272 23.3225 55.5305C20.8122 56.3348 20.0637 54.247 18.3055 51.3887C16.6049 48.4251 13.7878 47.7857 11.5242 47.272C8.86503 46.6687 7.78426 46.3341 7.74718 44.0792C7.73436 43.2895 7.76869 42.5635 7.80165 41.8613C7.91655 39.4265 8.02458 37.1267 5.76599 34.6328C4.18808 32.891 2.34055 30.9533 2.34376 29.965C2.3401 28.9387 4.36935 26.8472 5.76599 25.305Z" fill="#00E676"/>
<path d="M25.3125 21.7988C23.3739 21.7988 21.7969 23.3758 21.7969 25.3145C21.7969 27.2526 23.3739 28.8301 25.3125 28.8301C27.2511 28.8301 28.8281 27.2526 28.8281 25.3145C28.8281 23.3758 27.2511 21.7988 25.3125 21.7988ZM25.3125 26.4863C24.6661 26.4863 24.1406 25.9604 24.1406 25.3145C24.1406 24.6681 24.6661 24.1426 25.3125 24.1426C25.9589 24.1426 26.4844 24.6681 26.4844 25.3145C26.4844 25.9604 25.9589 26.4863 25.3125 26.4863Z" fill="#00E676"/>
<path d="M31.1719 34.6894C31.1719 36.6276 32.7489 38.2051 34.6875 38.2051C36.6261 38.2051 38.2031 36.6276 38.2031 34.6894C38.2031 32.7508 36.6261 31.1738 34.6875 31.1738C32.7489 31.1738 31.1719 32.7508 31.1719 34.6894ZM35.8594 34.6894C35.8594 35.3354 35.3339 35.8613 34.6875 35.8613C34.0411 35.8613 33.5156 35.3354 33.5156 34.6894C33.5156 34.0431 34.0411 33.5176 34.6875 33.5176C35.3339 33.5176 35.8594 34.0431 35.8594 34.6894Z" fill="#00E676"/>
<path d="M24.6622 38.0086C25.1983 38.3656 25.927 38.2242 26.2873 37.6835L35.6623 23.6211C36.0212 23.0823 35.8756 22.3549 35.3373 21.996C34.7985 21.6366 34.0711 21.7822 33.7122 22.321L24.3372 36.3835C23.9783 36.9218 24.1239 37.6492 24.6622 38.0086Z" fill="#00E676"/>
<path d="M29.9999 49.9237C40.9848 49.9237 49.9217 40.9868 49.9217 30.0019C49.9217 19.017 40.9848 10.0801 29.9999 10.0801C19.015 10.0801 10.0781 19.017 10.0781 30.0019C10.0781 40.9868 19.015 49.9237 29.9999 49.9237ZM29.9999 12.4238C39.6926 12.4238 47.578 20.3092 47.578 30.0019C47.578 39.6941 39.6926 47.5799 29.9999 47.5799C20.3073 47.5799 12.4219 39.6941 12.4219 30.0019C12.4219 20.3092 20.3073 12.4238 29.9999 12.4238Z" fill="#00E676"/>
<path d="M27.8509 17.2915C28.489 17.1839 28.9193 16.5792 28.8117 15.9411C28.7046 15.303 28.1004 14.8731 27.4618 14.9802C21.0691 16.0564 16.0515 21.0749 14.9767 27.468C14.8568 28.1803 15.4052 28.8345 16.1335 28.8345C16.6952 28.8345 17.1914 28.4293 17.288 27.8567C18.1971 22.4477 22.4424 18.202 27.8509 17.2915Z" fill="#00E676"/>
</g>
<defs>
<clipPath id="clip0">
<rect width="60" height="60" fill="white"/>
</clipPath>
</defs>
</svg>
