<svg width="24" height="24" viewBox="0 0 24 24" fill="none" xmlns="http://www.w3.org/2000/svg">
<circle cx="12" cy="12" r="12" fill="#76C27E"/>
<path d="M14.4018 14.6416C14.4018 14.1624 14.2325 13.7588 13.894 13.4307C13.5606 13.1025 12.9955 12.8057 12.1987 12.54C11.0893 12.2015 10.2794 11.7614 9.76897 11.2197C9.26377 10.6729 9.01116 9.98014 9.01116 9.1416C9.01116 8.28743 9.25856 7.58691 9.75335 7.04004C10.2533 6.49316 10.9382 6.16764 11.808 6.06348V4.35254H12.9721V6.07129C13.8471 6.19108 14.5268 6.55827 15.0112 7.17285C15.5007 7.78743 15.7455 8.62858 15.7455 9.69629H14.308C14.308 8.96191 14.1336 8.37858 13.7846 7.94629C13.4356 7.514 12.9643 7.29785 12.3705 7.29785C11.7507 7.29785 11.2768 7.45931 10.9487 7.78223C10.6205 8.09993 10.4565 8.54525 10.4565 9.11816C10.4565 9.64941 10.6283 10.0739 10.9721 10.3916C11.3211 10.7041 11.8914 10.9906 12.683 11.251C13.4799 11.5062 14.0997 11.79 14.5424 12.1025C14.9903 12.4098 15.3185 12.7692 15.5268 13.1807C15.7403 13.5921 15.8471 14.0739 15.8471 14.626C15.8471 15.5062 15.5815 16.2145 15.0502 16.751C14.5242 17.2874 13.7846 17.6051 12.8315 17.7041V19.1963H11.6752V17.7041C10.7065 17.6156 9.94606 17.2718 9.39397 16.6729C8.8471 16.0687 8.57366 15.251 8.57366 14.2197H10.019C10.019 14.9437 10.2091 15.501 10.5893 15.8916C10.9695 16.2822 11.5086 16.4775 12.2065 16.4775C12.8888 16.4775 13.4252 16.3135 13.8158 15.9854C14.2065 15.6572 14.4018 15.2093 14.4018 14.6416Z" fill="white"/>
</svg>
