<svg width="22" height="22" viewBox="0 0 22 22" fill="none" xmlns="http://www.w3.org/2000/svg">
<path d="M11 0C4.92339 0 0 4.92339 0 11C0 17.0766 4.92339 22 11 22C17.0766 22 22 17.0766 22 11C22 4.92339 17.0766 0 11 0ZM16.3936 13.8875C16.602 14.096 16.602 14.433 16.3936 14.6416L14.6371 16.3936C14.4286 16.602 14.0916 16.602 13.883 16.3936L11 13.4839L8.1125 16.3936C7.90405 16.602 7.56697 16.602 7.35845 16.3936L5.60645 14.6371C5.39798 14.4286 5.39798 14.0916 5.60645 13.883L8.51613 11L5.60645 8.1125C5.39798 7.90405 5.39798 7.56697 5.60645 7.35845L7.36292 5.60202C7.57137 5.39355 7.90845 5.39355 8.11697 5.60202L11 8.51613L13.8875 5.60645C14.096 5.39798 14.433 5.39798 14.6416 5.60645L16.398 7.36292C16.6064 7.57137 16.6064 7.90845 16.398 8.11697L13.4839 11L16.3936 13.8875Z" fill="#D2D2D2"/>
</svg>
