<svg width="22" height="22" viewBox="0 0 22 22" fill="none" xmlns="http://www.w3.org/2000/svg">
<path d="M22 11C22 17.0766 17.0766 22 11 22C4.92339 22 0 17.0766 0 11C0 4.92339 4.92339 0 11 0C17.0766 0 22 4.92339 22 11ZM9.04839 5.85484V11H5.90363C5.42903 11 5.18952 11.5766 5.52661 11.9093L10.623 16.979C10.8314 17.1875 11.1641 17.1875 11.3726 16.979L16.4689 11.9093C16.8061 11.5722 16.5665 11 16.092 11H12.9516V5.85484C12.9516 5.5621 12.7121 5.32258 12.4193 5.32258H9.58066C9.28792 5.32258 9.04839 5.5621 9.04839 5.85484Z" fill="#D2D2D2"/>
</svg>
