<svg width="23" height="23" viewBox="0 0 23 23" fill="none" xmlns="http://www.w3.org/2000/svg">
<path d="M23 11.5C23 17.8528 17.8528 23 11.5 23C5.14718 23 0 17.8528 0 11.5C0 5.14718 5.14718 0 11.5 0C17.8528 0 23 5.14718 23 11.5ZM9.45968 6.12097V11.5H6.17198C5.6758 11.5 5.42541 12.1028 5.77782 12.4506L11.1058 17.7508C11.3238 17.9688 11.6716 17.9688 11.8895 17.7508L17.2175 12.4506C17.57 12.0982 17.3196 11.5 16.8234 11.5H13.5403V6.12097C13.5403 5.81492 13.2899 5.56452 12.9839 5.56452H10.0161C9.7101 5.56452 9.45968 5.81492 9.45968 6.12097Z" fill="#76C27E"/>
</svg>
