<svg width="172" height="62" viewBox="0 0 172 62" fill="none" xmlns="http://www.w3.org/2000/svg">
<g filter="url(#filter0_d)">
<rect x="1" width="168" height="58" rx="10" fill="white"/>
<rect x="1.5" y="0.5" width="167" height="57" rx="9.5" stroke="#F3F3F3"/>
</g>
<g clip-path="url(#clip0)">
<path d="M35.7901 19.2676C35.146 18.942 34.3784 18.9128 33.709 19.184L44.9332 28.6324L48.6032 25.5353L35.7901 19.2676ZM32.6777 20.0584C32.5361 20.3103 32.46 20.5904 32.46 20.8787V38.1621C32.46 38.4517 32.5366 38.7277 32.6797 38.9742L43.8995 29.5048L32.6777 20.0584ZM44.9347 30.376L33.7286 39.8339C34.0259 39.9496 34.3424 40 34.6583 40C35.0484 40 35.4376 39.9217 35.7901 39.7437L48.6057 33.4666L44.9347 30.376ZM53.4832 27.9224C53.4788 27.92 53.4739 27.9175 53.4695 27.9155L49.9118 26.1751L45.9679 29.5036L49.9143 32.8255C49.9143 32.8255 53.4788 31.0798 53.4832 31.0778C54.1448 30.7402 54.5398 30.1504 54.5398 29.4999C54.5398 28.8494 54.1448 28.2596 53.4832 27.9224Z" fill="#4C4C4C"/>
</g>
<path d="M112.122 38.544L111.4 39.1876C111.22 39.2734 111.084 39.3592 110.904 39.445C110.408 39.6595 109.911 39.7024 109.46 39.7024C108.964 39.7024 108.242 39.6595 107.475 39.1447C106.392 38.4153 105.94 37.214 105.94 36.1414C105.94 33.9105 107.836 32.8379 109.415 32.8379C109.956 32.8379 110.498 32.9666 110.949 33.224C111.716 33.696 111.897 34.2966 111.987 34.6398L108.422 36.0127L107.249 36.0985C107.61 37.9005 108.918 38.973 110.362 38.973C111.084 38.973 111.626 38.7585 112.122 38.544C112.122 38.5011 112.212 38.4582 112.122 38.544ZM110.001 34.8972C110.272 34.8114 110.453 34.7256 110.453 34.5111C110.453 33.9534 109.776 33.2669 108.964 33.2669C108.377 33.2669 107.249 33.696 107.249 35.2405C107.249 35.4979 107.294 35.7553 107.294 36.0127L110.001 34.8972Z" fill="#333333"/>
<path d="M104.722 38.4149C104.722 38.9726 104.812 39.0584 105.309 39.1013C105.579 39.1442 105.805 39.1442 106.076 39.1871L105.534 39.4875H102.872C103.233 39.0584 103.278 39.0155 103.278 38.7152V38.4149V29.8771H102.105L103.233 29.3623H105.399C104.948 29.6197 104.812 29.7913 104.722 30.2633V38.4149Z" fill="#333333"/>
<path d="M100.616 33.5236C100.977 33.781 101.699 34.3816 101.699 35.4542C101.699 36.5268 101.067 36.9987 100.435 37.4707C100.255 37.6423 100.029 37.8568 100.029 38.1571C100.029 38.4574 100.255 38.629 100.435 38.7578L100.977 39.1439C101.654 39.6587 102.24 40.1736 102.24 41.1603C102.24 42.4903 100.887 43.8632 98.2695 43.8632C96.1037 43.8632 95.0208 42.8765 95.0208 41.8039C95.0208 41.289 95.2915 40.5597 96.1939 40.0449C97.1415 39.4871 98.4049 39.4442 99.0817 39.4013C98.8561 39.1439 98.6305 38.8865 98.6305 38.4145C98.6305 38.1571 98.7207 38.0284 98.7659 37.8568C98.5854 37.8568 98.45 37.8997 98.2695 37.8997C96.6903 37.8997 95.7878 36.7842 95.7878 35.6687C95.7878 35.0252 96.1037 34.2958 96.7354 33.7381C97.5927 33.0516 98.6305 32.9658 99.4427 32.9658H102.556L101.609 33.4807L100.616 33.5236ZM99.5329 39.8732C99.3976 39.8732 99.3525 39.8732 99.172 39.8732C99.0366 39.8732 98.2244 39.9161 97.5927 40.0878C97.2768 40.2165 96.2842 40.5597 96.2842 41.5465C96.2842 42.5762 97.322 43.3055 98.9464 43.3055C100.39 43.3055 101.157 42.662 101.157 41.761C101.157 41.0316 100.661 40.6455 99.5329 39.8732ZM99.9842 37.1703C100.345 36.8271 100.345 36.3981 100.345 36.1407C100.345 35.111 99.7134 33.5236 98.45 33.5236C98.0439 33.5236 97.6378 33.6952 97.4122 33.9955C97.1415 34.2958 97.0964 34.6819 97.0964 35.0681C97.0964 36.0119 97.6829 37.5994 98.9915 37.5994C99.3073 37.5565 99.7134 37.3849 99.9842 37.1703Z" fill="#333333"/>
<path d="M91.2757 39.6594C88.8842 39.6594 87.5757 37.9004 87.5757 36.2701C87.5757 34.3823 89.2001 32.7949 91.5013 32.7949C93.7123 32.7949 95.111 34.4252 95.111 36.1843C95.111 37.9004 93.7123 39.6594 91.2757 39.6594ZM93.1257 38.501C93.4867 38.0291 93.5769 37.4714 93.5769 36.9136C93.5769 35.6694 92.9452 33.224 91.0952 33.224C90.5989 33.224 90.1025 33.3956 89.7415 33.6959C89.1549 34.2107 89.0647 34.8114 89.0647 35.4549C89.0647 36.8707 89.7867 39.1875 91.6367 39.1875C92.1781 39.2304 92.8098 38.973 93.1257 38.501Z" fill="#333333"/>
<path d="M83.244 39.6594C80.8525 39.6594 79.5891 37.9004 79.5891 36.2701C79.5891 34.3823 81.2135 32.7949 83.5147 32.7949C85.7257 32.7949 87.1245 34.4252 87.1245 36.1843C87.0794 37.9004 85.6806 39.6594 83.244 39.6594ZM85.1391 38.501C85.5001 38.0291 85.5903 37.4714 85.5903 36.9136C85.5903 35.6694 84.9586 33.224 83.1086 33.224C82.6123 33.224 82.1159 33.3956 81.755 33.6959C81.1684 34.2107 81.0781 34.8114 81.0781 35.4549C81.0781 36.8707 81.8001 39.1875 83.6501 39.1875C84.1916 39.2304 84.7781 38.973 85.1391 38.501Z" fill="#333333"/>
<path d="M78.5964 39.1871L76.566 39.6161C75.7538 39.7448 75.0318 39.8306 74.2196 39.8306C70.3391 39.8306 68.8501 37.0848 68.8501 34.9826C68.8501 32.3655 70.9708 29.9629 74.5806 29.9629C75.3477 29.9629 76.0696 30.0487 76.7464 30.2632C77.7842 30.5635 78.2806 30.9068 78.5964 31.1213L77.4233 32.1939L76.9269 32.2797L77.2879 31.7648C76.7916 31.3358 75.9342 30.5206 74.2647 30.5206C72.0538 30.5206 70.3391 32.151 70.3391 34.4677C70.3391 36.999 72.2794 39.3587 75.3477 39.3587C76.2501 39.3587 76.7013 39.1871 77.1525 39.0155V36.8703L75.0318 36.999L76.1598 36.4413H79.1379L78.7769 36.7845C78.6867 36.8703 78.6867 36.8703 78.6416 36.999C78.6416 37.1277 78.5964 37.5139 78.5964 37.6426V39.1871Z" fill="#333333"/>
<path d="M116.499 38.5858V42.2326H115.732V32.9226H116.499V33.9952C116.995 33.3087 117.898 32.751 118.935 32.751C120.83 32.751 122.094 34.1239 122.094 36.269C122.094 38.4142 120.83 39.7871 118.935 39.7871C117.943 39.83 117.04 39.3581 116.499 38.5858ZM121.282 36.312C121.282 34.6816 120.379 33.4374 118.8 33.4374C117.807 33.4374 116.86 34.1668 116.454 34.8103V37.7707C116.86 38.4142 117.807 39.1865 118.8 39.1865C120.379 39.1865 121.282 37.9423 121.282 36.312Z" fill="#333333"/>
<path d="M123.132 39.6586V30.3486H123.899V39.6586H123.132Z" fill="#333333"/>
<path d="M132.472 41.6323C132.652 41.7181 132.923 41.761 133.104 41.761C133.555 41.761 133.916 41.5894 134.187 40.9458L134.728 39.7445L131.705 32.9658H132.562L135.134 38.8436L137.706 32.9658H138.563L134.908 41.1603C134.548 42.0184 133.916 42.4045 133.104 42.4045C132.878 42.4045 132.517 42.3616 132.337 42.3187L132.472 41.6323Z" fill="#333333"/>
<path d="M130.216 39.6585C130.171 39.444 130.126 39.2295 130.081 39.0579C130.035 38.8863 130.035 38.7147 130.035 38.543C129.765 38.9292 129.404 39.2295 128.953 39.444C128.501 39.7014 128.05 39.7872 127.418 39.7872C126.696 39.7872 126.11 39.6156 125.704 39.2724C125.298 38.9292 125.072 38.4572 125.072 37.8566C125.072 37.2559 125.388 36.784 125.974 36.3979C126.561 36.0117 127.328 35.8401 128.276 35.8401H130.035V34.9821C130.035 34.5101 129.855 34.124 129.539 33.8666C129.178 33.6092 128.727 33.4376 128.095 33.4376C127.509 33.4376 127.057 33.5663 126.696 33.8237C126.335 34.0811 126.155 34.3814 126.155 34.7676H125.388V34.7247C125.343 34.2098 125.613 33.7808 126.11 33.3947C126.606 33.0085 127.283 32.8369 128.14 32.8369C128.953 32.8369 129.629 33.0085 130.171 33.3947C130.667 33.7808 130.938 34.2956 130.938 35.025V38.3285C130.938 38.5859 130.938 38.8005 130.983 39.015C131.028 39.2295 131.073 39.444 131.118 39.7014L130.216 39.6585ZM127.509 39.1437C128.14 39.1437 128.637 39.015 129.088 38.7146C129.539 38.4572 129.9 38.0711 130.035 37.685V36.3979H128.231C127.554 36.3979 126.967 36.5266 126.516 36.8269C126.065 37.1272 125.839 37.4705 125.839 37.8566C125.839 38.2427 125.974 38.543 126.245 38.7576C126.651 39.015 127.012 39.1437 127.509 39.1437Z" fill="#333333"/>
<path d="M76.2656 24.293C76.1602 25.1953 75.8262 25.8926 75.2637 26.3848C74.7051 26.873 73.9609 27.1172 73.0312 27.1172C72.0234 27.1172 71.2148 26.7559 70.6055 26.0332C70 25.3105 69.6973 24.3438 69.6973 23.1328V22.3125C69.6973 21.5195 69.8379 20.8223 70.1191 20.2207C70.4043 19.6191 70.8066 19.1582 71.3262 18.8379C71.8457 18.5137 72.4473 18.3516 73.1309 18.3516C74.0371 18.3516 74.7637 18.6055 75.3105 19.1133C75.8574 19.6172 76.1758 20.3164 76.2656 21.2109H75.1348C75.0371 20.5312 74.8242 20.0391 74.4961 19.7344C74.1719 19.4297 73.7168 19.2773 73.1309 19.2773C72.4121 19.2773 71.8477 19.543 71.4375 20.0742C71.0312 20.6055 70.8281 21.3613 70.8281 22.3418V23.168C70.8281 24.0938 71.0215 24.8301 71.4082 25.377C71.7949 25.9238 72.3359 26.1973 73.0312 26.1973C73.6562 26.1973 74.1348 26.0566 74.4668 25.7754C74.8027 25.4902 75.0254 24.9961 75.1348 24.293H76.2656ZM79.6113 24.2988H78.8203V27H77.7305V20.6602H78.8203V23.3438H79.5293L81.6621 20.6602H82.9746L80.4668 23.707L83.1855 27H81.8086L79.6113 24.2988ZM88.0312 27C87.9688 26.875 87.918 26.6523 87.8789 26.332C87.375 26.8555 86.7734 27.1172 86.0742 27.1172C85.4492 27.1172 84.9355 26.9414 84.5332 26.5898C84.1348 26.2344 83.9355 25.7852 83.9355 25.2422C83.9355 24.582 84.1855 24.0703 84.6855 23.707C85.1895 23.3398 85.8965 23.1562 86.8066 23.1562H87.8613V22.6582C87.8613 22.2793 87.748 21.9785 87.5215 21.7559C87.2949 21.5293 86.9609 21.416 86.5195 21.416C86.1328 21.416 85.8086 21.5137 85.5469 21.709C85.2852 21.9043 85.1543 22.1406 85.1543 22.418H84.0645C84.0645 22.1016 84.1758 21.7969 84.3984 21.5039C84.625 21.207 84.9297 20.9727 85.3125 20.8008C85.6992 20.6289 86.123 20.543 86.584 20.543C87.3145 20.543 87.8867 20.7266 88.3008 21.0938C88.7148 21.457 88.9297 21.959 88.9453 22.5996V25.5176C88.9453 26.0996 89.0195 26.5625 89.168 26.9062V27H88.0312ZM86.2324 26.1738C86.5723 26.1738 86.8945 26.0859 87.1992 25.9102C87.5039 25.7344 87.7246 25.5059 87.8613 25.2246V23.9238H87.0117C85.6836 23.9238 85.0195 24.3125 85.0195 25.0898C85.0195 25.4297 85.1328 25.6953 85.3594 25.8867C85.5859 26.0781 85.877 26.1738 86.2324 26.1738ZM95.4316 27H94.3418V24.7031C93.8652 24.8281 93.377 24.8906 92.877 24.8906C92.084 24.8906 91.4785 24.6875 91.0605 24.2812C90.6465 23.875 90.4355 23.2969 90.4277 22.5469V20.6543H91.5117V22.582C91.5312 23.5273 91.9863 24 92.877 24C93.377 24 93.8652 23.9375 94.3418 23.8125V20.6602H95.4316V27ZM101.086 27C101.023 26.875 100.973 26.6523 100.934 26.332C100.43 26.8555 99.8281 27.1172 99.1289 27.1172C98.5039 27.1172 97.9902 26.9414 97.5879 26.5898C97.1895 26.2344 96.9902 25.7852 96.9902 25.2422C96.9902 24.582 97.2402 24.0703 97.7402 23.707C98.2441 23.3398 98.9512 23.1562 99.8613 23.1562H100.916V22.6582C100.916 22.2793 100.803 21.9785 100.576 21.7559C100.35 21.5293 100.016 21.416 99.5742 21.416C99.1875 21.416 98.8633 21.5137 98.6016 21.709C98.3398 21.9043 98.209 22.1406 98.209 22.418H97.1191C97.1191 22.1016 97.2305 21.7969 97.4531 21.5039C97.6797 21.207 97.9844 20.9727 98.3672 20.8008C98.7539 20.6289 99.1777 20.543 99.6387 20.543C100.369 20.543 100.941 20.7266 101.355 21.0938C101.77 21.457 101.984 21.959 102 22.5996V25.5176C102 26.0996 102.074 26.5625 102.223 26.9062V27H101.086ZM99.2871 26.1738C99.627 26.1738 99.9492 26.0859 100.254 25.9102C100.559 25.7344 100.779 25.5059 100.916 25.2246V23.9238H100.066C98.7383 23.9238 98.0742 24.3125 98.0742 25.0898C98.0742 25.4297 98.1875 25.6953 98.4141 25.8867C98.6406 26.0781 98.9316 26.1738 99.2871 26.1738ZM108.316 21.5391H106.189V27H105.105V21.5391H103.02V20.6602H108.316V21.5391ZM110.555 22.8457H112.201C112.92 22.8535 113.488 23.041 113.906 23.4082C114.324 23.7754 114.533 24.2734 114.533 24.9023C114.533 25.5352 114.318 26.043 113.889 26.4258C113.459 26.8086 112.881 27 112.154 27H109.471V20.6602H110.555V22.8457ZM110.555 23.7305V26.1152H112.166C112.572 26.1152 112.887 26.0117 113.109 25.8047C113.332 25.5938 113.443 25.3066 113.443 24.9434C113.443 24.5918 113.334 24.3047 113.115 24.082C112.9 23.8555 112.598 23.7383 112.207 23.7305H110.555ZM118.963 27V20.6602H121.436C122.279 20.6602 122.926 20.8086 123.375 21.1055C123.828 21.3984 124.055 21.8301 124.055 22.4004C124.055 22.6934 123.967 22.959 123.791 23.1973C123.615 23.4316 123.355 23.6113 123.012 23.7363C123.395 23.8262 123.701 24.002 123.932 24.2637C124.166 24.5254 124.283 24.8379 124.283 25.2012C124.283 25.7832 124.068 26.2285 123.639 26.5371C123.213 26.8457 122.609 27 121.828 27H118.963ZM120.047 24.2168V26.127H121.84C122.293 26.127 122.631 26.043 122.854 25.875C123.08 25.707 123.193 25.4707 123.193 25.166C123.193 24.5332 122.729 24.2168 121.799 24.2168H120.047ZM120.047 23.3496H121.447C122.463 23.3496 122.971 23.0527 122.971 22.459C122.971 21.8652 122.49 21.5586 121.529 21.5391H120.047V23.3496Z" fill="#333333"/>
<defs>
<filter id="filter0_d" x="0" y="0" width="172" height="62" filterUnits="userSpaceOnUse" color-interpolation-filters="sRGB">
<feFlood flood-opacity="0" result="BackgroundImageFix"/>
<feColorMatrix in="SourceAlpha" type="matrix" values="0 0 0 0 0 0 0 0 0 0 0 0 0 0 0 0 0 0 127 0"/>
<feOffset dx="1" dy="2"/>
<feGaussianBlur stdDeviation="1"/>
<feColorMatrix type="matrix" values="0 0 0 0 0.854167 0 0 0 0 0.854167 0 0 0 0 0.854167 0 0 0 0.25 0"/>
<feBlend mode="normal" in2="BackgroundImageFix" result="effect1_dropShadow"/>
<feBlend mode="normal" in="SourceGraphic" in2="effect1_dropShadow" result="shape"/>
</filter>
<clipPath id="clip0">
<rect width="25" height="21" fill="white" transform="translate(31 19)"/>
</clipPath>
</defs>
</svg>
