<svg width="123" height="28" viewBox="0 0 123 28" fill="none" xmlns="http://www.w3.org/2000/svg">
<path d="M42.2578 7.625L45.9766 16.9062L49.6953 7.625H51.6406V19H50.1406V14.5703L50.2812 9.78906L46.5469 19H45.3984L41.6719 9.8125L41.8203 14.5703V19H40.3203V7.625H42.2578ZM59.2812 19C59.1979 18.8333 59.1302 18.5365 59.0781 18.1094C58.4062 18.8073 57.6042 19.1562 56.6719 19.1562C55.8385 19.1562 55.1536 18.9219 54.6172 18.4531C54.0859 17.9792 53.8203 17.3802 53.8203 16.6562C53.8203 15.776 54.1536 15.0938 54.8203 14.6094C55.4922 14.1198 56.4349 13.875 57.6484 13.875H59.0547V13.2109C59.0547 12.7057 58.9036 12.3047 58.6016 12.0078C58.2995 11.7057 57.8542 11.5547 57.2656 11.5547C56.75 11.5547 56.3177 11.6849 55.9688 11.9453C55.6198 12.2057 55.4453 12.5208 55.4453 12.8906H53.9922C53.9922 12.4688 54.1406 12.0625 54.4375 11.6719C54.7396 11.276 55.1458 10.9635 55.6562 10.7344C56.1719 10.5052 56.737 10.3906 57.3516 10.3906C58.3255 10.3906 59.0885 10.6354 59.6406 11.125C60.1927 11.6094 60.4792 12.2786 60.5 13.1328V17.0234C60.5 17.7995 60.599 18.4167 60.7969 18.875V19H59.2812ZM56.8828 17.8984C57.3359 17.8984 57.7656 17.7812 58.1719 17.5469C58.5781 17.3125 58.8724 17.0078 59.0547 16.6328V14.8984H57.9219C56.151 14.8984 55.2656 15.4167 55.2656 16.4531C55.2656 16.9062 55.4167 17.2604 55.7188 17.5156C56.0208 17.7708 56.4089 17.8984 56.8828 17.8984ZM67.6875 16.7578C67.6875 16.3672 67.5391 16.0651 67.2422 15.8516C66.9505 15.6328 66.4375 15.4453 65.7031 15.2891C64.974 15.1328 64.3932 14.9453 63.9609 14.7266C63.5339 14.5078 63.2161 14.2474 63.0078 13.9453C62.8047 13.6432 62.7031 13.2839 62.7031 12.8672C62.7031 12.1745 62.9948 11.5885 63.5781 11.1094C64.1667 10.6302 64.9167 10.3906 65.8281 10.3906C66.7865 10.3906 67.5625 10.638 68.1562 11.1328C68.7552 11.6276 69.0547 12.2604 69.0547 13.0312H67.6016C67.6016 12.6354 67.4323 12.2943 67.0938 12.0078C66.7604 11.7214 66.3385 11.5781 65.8281 11.5781C65.3021 11.5781 64.8906 11.6927 64.5938 11.9219C64.2969 12.151 64.1484 12.4505 64.1484 12.8203C64.1484 13.1693 64.2865 13.4323 64.5625 13.6094C64.8385 13.7865 65.3359 13.9557 66.0547 14.1172C66.7786 14.2786 67.3646 14.4714 67.8125 14.6953C68.2604 14.9193 68.5911 15.1901 68.8047 15.5078C69.0234 15.8203 69.1328 16.2031 69.1328 16.6562C69.1328 17.4115 68.8307 18.0182 68.2266 18.4766C67.6224 18.9297 66.8385 19.1562 65.875 19.1562C65.1979 19.1562 64.599 19.0365 64.0781 18.7969C63.5573 18.5573 63.1484 18.224 62.8516 17.7969C62.5599 17.3646 62.4141 16.8984 62.4141 16.3984H63.8594C63.8854 16.8828 64.0781 17.2682 64.4375 17.5547C64.8021 17.8359 65.2812 17.9766 65.875 17.9766C66.4219 17.9766 66.8594 17.8672 67.1875 17.6484C67.5208 17.4245 67.6875 17.1276 67.6875 16.7578ZM72.9766 8.5V10.5469H74.5547V11.6641H72.9766V16.9062C72.9766 17.2448 73.0469 17.5 73.1875 17.6719C73.3281 17.8385 73.5677 17.9219 73.9062 17.9219C74.0729 17.9219 74.3021 17.8906 74.5938 17.8281V19C74.2135 19.1042 73.8438 19.1562 73.4844 19.1562C72.8385 19.1562 72.3516 18.9609 72.0234 18.5703C71.6953 18.1797 71.5312 17.625 71.5312 16.9062V11.6641H69.9922V10.5469H71.5312V8.5H72.9766ZM79.7578 19.1562C78.612 19.1562 77.6797 18.7812 76.9609 18.0312C76.2422 17.276 75.8828 16.2682 75.8828 15.0078V14.7422C75.8828 13.9036 76.0417 13.1562 76.3594 12.5C76.6823 11.8385 77.1302 11.3229 77.7031 10.9531C78.2812 10.5781 78.9062 10.3906 79.5781 10.3906C80.6771 10.3906 81.5312 10.7526 82.1406 11.4766C82.75 12.2005 83.0547 13.237 83.0547 14.5859V15.1875H77.3281C77.349 16.0208 77.5911 16.6953 78.0547 17.2109C78.5234 17.7214 79.1172 17.9766 79.8359 17.9766C80.3464 17.9766 80.7786 17.8724 81.1328 17.6641C81.487 17.4557 81.7969 17.1797 82.0625 16.8359L82.9453 17.5234C82.237 18.612 81.1745 19.1562 79.7578 19.1562ZM79.5781 11.5781C78.9948 11.5781 78.5052 11.7917 78.1094 12.2188C77.7135 12.6406 77.4688 13.2344 77.375 14H81.6094V13.8906C81.5677 13.1562 81.3698 12.5885 81.0156 12.1875C80.6615 11.7812 80.1823 11.5781 79.5781 11.5781ZM88.8203 11.8438C88.6016 11.8073 88.3646 11.7891 88.1094 11.7891C87.1615 11.7891 86.5182 12.1927 86.1797 13V19H84.7344V10.5469H86.1406L86.1641 11.5234C86.638 10.7682 87.3099 10.3906 88.1797 10.3906C88.4609 10.3906 88.6745 10.4271 88.8203 10.5V11.8438ZM98.75 15.3906C98.6094 16.5938 98.1641 17.5234 97.4141 18.1797C96.6693 18.8307 95.6771 19.1562 94.4375 19.1562C93.0938 19.1562 92.0156 18.6745 91.2031 17.7109C90.3958 16.7474 89.9922 15.4583 89.9922 13.8438V12.75C89.9922 11.6927 90.1797 10.763 90.5547 9.96094C90.9349 9.15885 91.4714 8.54427 92.1641 8.11719C92.8568 7.6849 93.6589 7.46875 94.5703 7.46875C95.7786 7.46875 96.7474 7.80729 97.4766 8.48438C98.2057 9.15625 98.6302 10.0885 98.75 11.2812H97.2422C97.112 10.375 96.8281 9.71875 96.3906 9.3125C95.9583 8.90625 95.3516 8.70312 94.5703 8.70312C93.612 8.70312 92.8594 9.05729 92.3125 9.76562C91.7708 10.474 91.5 11.4818 91.5 12.7891V13.8906C91.5 15.125 91.7578 16.1068 92.2734 16.8359C92.7891 17.5651 93.5104 17.9297 94.4375 17.9297C95.2708 17.9297 95.9089 17.7422 96.3516 17.3672C96.7995 16.987 97.0964 16.3281 97.2422 15.3906H98.75ZM105.797 19C105.714 18.8333 105.646 18.5365 105.594 18.1094C104.922 18.8073 104.12 19.1562 103.188 19.1562C102.354 19.1562 101.669 18.9219 101.133 18.4531C100.602 17.9792 100.336 17.3802 100.336 16.6562C100.336 15.776 100.669 15.0938 101.336 14.6094C102.008 14.1198 102.951 13.875 104.164 13.875H105.57V13.2109C105.57 12.7057 105.419 12.3047 105.117 12.0078C104.815 11.7057 104.37 11.5547 103.781 11.5547C103.266 11.5547 102.833 11.6849 102.484 11.9453C102.135 12.2057 101.961 12.5208 101.961 12.8906H100.508C100.508 12.4688 100.656 12.0625 100.953 11.6719C101.255 11.276 101.661 10.9635 102.172 10.7344C102.688 10.5052 103.253 10.3906 103.867 10.3906C104.841 10.3906 105.604 10.6354 106.156 11.125C106.708 11.6094 106.995 12.2786 107.016 13.1328V17.0234C107.016 17.7995 107.115 18.4167 107.312 18.875V19H105.797ZM103.398 17.8984C103.852 17.8984 104.281 17.7812 104.688 17.5469C105.094 17.3125 105.388 17.0078 105.57 16.6328V14.8984H104.438C102.667 14.8984 101.781 15.4167 101.781 16.4531C101.781 16.9062 101.932 17.2604 102.234 17.5156C102.536 17.7708 102.924 17.8984 103.398 17.8984ZM113.367 11.8438C113.148 11.8073 112.911 11.7891 112.656 11.7891C111.708 11.7891 111.065 12.1927 110.727 13V19H109.281V10.5469H110.688L110.711 11.5234C111.185 10.7682 111.857 10.3906 112.727 10.3906C113.008 10.3906 113.221 10.4271 113.367 10.5V11.8438ZM114.195 14.7031C114.195 13.4062 114.503 12.3646 115.117 11.5781C115.732 10.7865 116.536 10.3906 117.531 10.3906C118.521 10.3906 119.305 10.7292 119.883 11.4062V7H121.328V19H120L119.93 18.0938C119.352 18.8021 118.547 19.1562 117.516 19.1562C116.536 19.1562 115.737 18.7552 115.117 17.9531C114.503 17.151 114.195 16.1042 114.195 14.8125V14.7031ZM115.641 14.8672C115.641 15.8255 115.839 16.5755 116.234 17.1172C116.63 17.6589 117.177 17.9297 117.875 17.9297C118.792 17.9297 119.461 17.5182 119.883 16.6953V12.8125C119.451 12.0156 118.786 11.6172 117.891 11.6172C117.182 11.6172 116.63 11.8906 116.234 12.4375C115.839 12.9844 115.641 13.7943 115.641 14.8672Z" fill="#333333"/>
<path d="M7.54787 14.3651C6.81744 14.6694 7.487 15.4608 7.97396 14.8521C8.03483 14.7303 8.0957 14.5477 8.03483 14.3042C7.85222 14.3042 7.73048 14.3042 7.54787 14.3651ZM12.7827 13.939H13.6348C13.6957 13.2694 12.9044 13.2086 12.7827 13.939ZM15.9479 12.4781L11.8696 12.4173L12.1131 11.7477H15.7653L15.4609 10.9564H12.3566L12.7218 10.2868H15.0957L14.487 9.5564H13.2087C13.4522 9.31293 13.6957 9.13032 13.8783 8.94771C11.7479 6.93901 8.52179 6.81727 6.26961 8.03467C4.13918 9.19119 2.92179 11.5042 2.80005 13.8781C2.80005 16.0086 4.01744 18.1999 5.96527 19.4173C8.40005 20.9999 11.8087 20.9999 14.5479 18.0173H13.1479L12.6609 17.3477H14.974L15.4 16.6173H12.3566L12.0522 15.8868H15.7044L16.0087 14.9738C16.0087 14.9738 15.8261 14.6694 15.8261 14.1216C15.8261 13.5738 16.0087 13.2086 16.0087 13.2086L15.9479 12.4781ZM5.60005 15.5825L5.9044 13.1477L4.99135 15.5825H4.56527L4.5044 13.1477L4.07831 15.5825H3.40874L4.01744 12.2955H4.99135L5.05222 14.3651L5.78266 12.2955H6.87831L6.26961 15.5825H5.60005ZM7.91309 15.6434V15.3999C7.00005 16.0694 6.45222 15.4608 6.57396 14.7912C6.63483 14.5477 6.81744 14.2434 7.06092 14.0608C7.3044 13.8781 7.73048 13.9999 8.15657 13.939C8.27831 13.3912 7.60874 13.5129 7.00005 13.6347L7.12179 13.026C8.0957 12.7825 8.82614 12.8434 8.887 13.6347L8.52179 15.6434H7.91309ZM10.5914 13.4521C10.0435 13.3303 9.67831 13.3912 9.80005 13.7564C9.98266 13.9999 10.3479 13.9999 10.4696 14.1825C10.5914 14.3042 10.5914 14.6086 10.5914 14.7912C10.5305 15.2173 10.3479 15.5216 9.92179 15.5825C9.4957 15.6434 9.13048 15.6434 8.82613 15.5216L8.887 14.9129C9.19135 14.9738 9.4957 15.0347 9.73918 14.9738C10.0435 14.8521 10.0435 14.5477 9.61744 14.426C9.19135 14.2434 9.00874 13.8781 9.06961 13.5129C9.13048 12.8434 9.80005 12.7216 10.7131 12.7825L10.5914 13.4521ZM11.8696 14.9738L11.8087 15.5216C11.2609 15.6434 10.774 15.6434 10.774 15.2173C10.774 14.6694 11.2 12.539 11.2 12.539H11.8087L11.7479 12.9042H12.1131L11.9914 13.5129H11.6261C11.5653 13.8173 11.5044 14.1216 11.5044 14.3042C11.3827 14.7912 11.3827 15.0347 11.8696 14.9738ZM14.1827 14.4868L12.7218 14.5477C12.6609 15.0955 13.0261 15.339 14 14.9738L13.8783 15.5825C12.6 15.8868 11.9305 15.5216 12.0522 14.1216C12.1131 13.7564 12.2348 13.4521 12.4174 13.2694C13.1479 12.5999 14 12.7216 14.1827 13.5738C14.3044 13.8173 14.2435 14.1825 14.1827 14.4868ZM15.7044 13.6347C15.2174 13.5129 15.0957 14.4868 14.974 15.5825H14.3044L14.7305 12.9042H15.3392L15.2783 13.2086C15.5827 13.0868 15.5218 12.7825 15.887 12.7825L15.7044 13.6347Z" fill="#AD252B"/>
<path d="M15.8261 13.9387V14.1213V13.9387ZM19.0522 14.3648C18.4435 14.6083 18.8087 15.4605 19.4174 14.9126C19.4782 14.7909 19.5391 14.6083 19.5391 14.3648C19.4174 14.3039 19.2348 14.3039 19.0522 14.3648ZM22.9478 13.4518C22.2174 13.4518 22.0956 14.7909 22.6435 14.9735C22.8869 15.0344 23.1913 14.7909 23.2522 14.2431C23.3739 13.817 23.2522 13.5126 22.9478 13.4518ZM13.8782 8.94743L13.2087 9.55612H14.4869L15.0956 10.2866H12.7217L12.3565 10.9561L15.3391 10.8953L15.6435 11.6866H11.9913L11.7478 12.3561L15.8261 12.417C15.8869 12.6605 15.9478 13.2083 15.9478 13.2083C15.9478 13.2083 15.8261 13.4518 15.7652 13.817C15.8869 13.0866 16.313 12.417 17.0435 12.1126C17.3478 11.9909 17.8348 12.1126 18.1391 12.2344L18.0174 12.9039C17.8348 12.7822 17.5304 12.6605 17.2869 12.7822C16.4956 13.0257 16.1913 14.2431 16.8608 14.8518C16.9826 14.9735 17.4087 14.9735 17.713 14.7909L17.6522 15.5213C17.1043 15.6431 16.3739 15.5822 16.1913 15.3387C16.0087 15.0953 15.8869 14.8518 15.8261 14.5474C15.8869 14.7909 15.9478 14.9735 15.9478 14.9735C15.9478 14.9735 15.8869 15.217 15.8261 15.3387L15.6435 15.8866H11.9913L12.2956 16.617H15.3391L14.913 17.3474H12.6L13.0869 18.017H14.4869L13.7565 18.7474C17.7739 22.5213 24.713 19.7822 24.8348 14.1213C25.1391 8.3996 18.6869 4.93004 13.8782 8.94743ZM19.5391 15.5213L19.6 15.2779H19.5391C19.2956 15.5213 18.8695 15.5822 18.6869 15.5213C17.9565 15.2779 18.0174 14.3039 18.8087 13.8779C19.0522 13.7561 19.4174 13.817 19.7217 13.7561C19.8435 13.1474 19.1739 13.2083 18.5652 13.3909L18.6261 12.8431C19.4174 12.5996 20.0869 12.5996 20.3913 13.2692L20.0869 15.5213H19.5391ZM20.8782 15.5822H20.2695L20.6956 12.9039H21.3043C21.2435 13.0257 21.2435 13.2083 21.3043 13.2083L21.6087 12.9648C21.7304 12.9039 21.8522 12.9039 21.913 12.9039L21.6695 13.6344C21.0608 13.6344 21 14.6083 20.8782 15.5822ZM23.1304 15.5822V15.3387C22.7652 15.6431 22.3391 15.6431 22.0956 15.5213C21.2435 14.9126 21.4869 13.2692 22.5217 12.9039C22.8869 12.7822 23.2522 13.0257 23.4348 13.2083L23.6174 12.2953H24.2869L23.8 15.5822H23.1304ZM15.8869 14.6083C15.8869 14.5474 15.8261 14.4866 15.8261 14.3648C15.8261 14.4866 15.8261 14.5474 15.8869 14.6083ZM15.8261 14.3648V14.1822V14.2431V14.3648Z" fill="#E09630"/>
<path d="M14 0C6.26957 0 0 6.26957 0 14C0 21.7304 6.26957 28 14 28C21.7304 28 28 21.7304 28 14C28 6.26957 21.7304 0 14 0ZM13.9391 27.3304C6.57391 27.3304 0.547826 21.3652 0.547826 13.9391C0.547826 6.51304 6.51304 0.547826 13.9391 0.547826C21.3043 0.547826 27.3304 6.51304 27.3304 13.9391C27.3304 21.3652 21.3652 27.3304 13.9391 27.3304Z" fill="#353535"/>
</svg>
