<svg width="19" height="22" viewBox="0 0 19 22" fill="none" xmlns="http://www.w3.org/2000/svg">
<path d="M18.4013 15.7291C17.4577 14.7731 16.2857 13.5832 16.2857 8.9375C16.2857 5.52604 13.8331 2.69547 10.617 2.15574C10.7737 1.92638 10.8575 1.65397 10.8571 1.375C10.8571 0.615613 10.2495 0 9.5 0C8.75045 0 8.14286 0.615613 8.14286 1.375C8.14286 1.66504 8.23168 1.93394 8.383 2.15574C5.16693 2.69547 2.71428 5.52604 2.71428 8.9375C2.71428 13.5832 1.54192 14.7731 0.598282 15.7291C-0.680356 17.0246 0.225832 19.25 2.03774 19.25H6.78571C6.78571 20.7688 8.00097 22 9.5 22C10.999 22 12.2143 20.7688 12.2143 19.25H16.9618C18.7702 19.25 19.6826 17.0272 18.4013 15.7291ZM9.5 20.2812C9.58998 20.2812 9.67629 20.3175 9.73987 20.3819C9.80352 20.4464 9.83928 20.5338 9.83928 20.625C9.83928 20.7162 9.80352 20.8036 9.73987 20.8681C9.67629 20.9325 9.58998 20.9688 9.5 20.9688C8.56459 20.9688 7.80357 20.1977 7.80357 19.25H8.48214C8.48214 19.8186 8.93875 20.2812 9.5 20.2812Z" fill="#D2D2D2"/>
</svg>
