<svg width="22" height="22" viewBox="0 0 22 22" fill="none" xmlns="http://www.w3.org/2000/svg">
<path d="M0 11C0 4.92339 4.92339 0 11 0C17.0766 0 22 4.92339 22 11C22 17.0766 17.0766 22 11 22C4.92339 22 0 17.0766 0 11ZM12.9516 16.1452V11H16.0964C16.571 11 16.8105 10.4234 16.4734 10.0907L11.377 5.02097C11.1686 4.8125 10.8359 4.8125 10.6274 5.02097L5.52661 10.0907C5.18952 10.4278 5.42903 11 5.90363 11H9.04839V16.1452C9.04839 16.4379 9.28792 16.6774 9.58066 16.6774H12.4193C12.7121 16.6774 12.9516 16.4379 12.9516 16.1452Z" fill="#D2D2D2"/>
</svg>
