<svg width="88" height="28" viewBox="0 0 88 28" fill="none" xmlns="http://www.w3.org/2000/svg">
<path d="M41.8203 14.5469V19H40.3203V7.625H44.5156C45.7604 7.625 46.7344 7.94271 47.4375 8.57812C48.1458 9.21354 48.5 10.0547 48.5 11.1016C48.5 12.2057 48.1536 13.0573 47.4609 13.6562C46.7734 14.25 45.7865 14.5469 44.5 14.5469H41.8203ZM41.8203 13.3203H44.5156C45.3177 13.3203 45.9323 13.1328 46.3594 12.7578C46.7865 12.3776 47 11.8307 47 11.1172C47 10.4401 46.7865 9.89844 46.3594 9.49219C45.9323 9.08594 45.3464 8.875 44.6016 8.85938H41.8203V13.3203ZM55.3125 19C55.2292 18.8333 55.1615 18.5365 55.1094 18.1094C54.4375 18.8073 53.6354 19.1562 52.7031 19.1562C51.8698 19.1562 51.1849 18.9219 50.6484 18.4531C50.1172 17.9792 49.8516 17.3802 49.8516 16.6562C49.8516 15.776 50.1849 15.0938 50.8516 14.6094C51.5234 14.1198 52.4661 13.875 53.6797 13.875H55.0859V13.2109C55.0859 12.7057 54.9349 12.3047 54.6328 12.0078C54.3307 11.7057 53.8854 11.5547 53.2969 11.5547C52.7812 11.5547 52.349 11.6849 52 11.9453C51.651 12.2057 51.4766 12.5208 51.4766 12.8906H50.0234C50.0234 12.4688 50.1719 12.0625 50.4688 11.6719C50.7708 11.276 51.1771 10.9635 51.6875 10.7344C52.2031 10.5052 52.7682 10.3906 53.3828 10.3906C54.3568 10.3906 55.1198 10.6354 55.6719 11.125C56.224 11.6094 56.5104 12.2786 56.5312 13.1328V17.0234C56.5312 17.7995 56.6302 18.4167 56.8281 18.875V19H55.3125ZM52.9141 17.8984C53.3672 17.8984 53.7969 17.7812 54.2031 17.5469C54.6094 17.3125 54.9036 17.0078 55.0859 16.6328V14.8984H53.9531C52.1823 14.8984 51.2969 15.4167 51.2969 16.4531C51.2969 16.9062 51.4479 17.2604 51.75 17.5156C52.0521 17.7708 52.4401 17.8984 52.9141 17.8984ZM61.4375 16.8828L63.4062 10.5469H64.9531L61.5547 20.3047C61.0286 21.7109 60.1927 22.4141 59.0469 22.4141L58.7734 22.3906L58.2344 22.2891V21.1172L58.625 21.1484C59.1146 21.1484 59.4948 21.0495 59.7656 20.8516C60.0417 20.6536 60.2682 20.2917 60.4453 19.7656L60.7656 18.9062L57.75 10.5469H59.3281L61.4375 16.8828ZM69.6484 19.1562C68.5026 19.1562 67.5703 18.7812 66.8516 18.0312C66.1328 17.276 65.7734 16.2682 65.7734 15.0078V14.7422C65.7734 13.9036 65.9323 13.1562 66.25 12.5C66.5729 11.8385 67.0208 11.3229 67.5938 10.9531C68.1719 10.5781 68.7969 10.3906 69.4688 10.3906C70.5677 10.3906 71.4219 10.7526 72.0312 11.4766C72.6406 12.2005 72.9453 13.237 72.9453 14.5859V15.1875H67.2188C67.2396 16.0208 67.4818 16.6953 67.9453 17.2109C68.4141 17.7214 69.0078 17.9766 69.7266 17.9766C70.237 17.9766 70.6693 17.8724 71.0234 17.6641C71.3776 17.4557 71.6875 17.1797 71.9531 16.8359L72.8359 17.5234C72.1276 18.612 71.0651 19.1562 69.6484 19.1562ZM69.4688 11.5781C68.8854 11.5781 68.3958 11.7917 68 12.2188C67.6042 12.6406 67.3594 13.2344 67.2656 14H71.5V13.8906C71.4583 13.1562 71.2604 12.5885 70.9062 12.1875C70.5521 11.7812 70.0729 11.5781 69.4688 11.5781ZM78.1328 19.1562C76.987 19.1562 76.0547 18.7812 75.3359 18.0312C74.6172 17.276 74.2578 16.2682 74.2578 15.0078V14.7422C74.2578 13.9036 74.4167 13.1562 74.7344 12.5C75.0573 11.8385 75.5052 11.3229 76.0781 10.9531C76.6562 10.5781 77.2812 10.3906 77.9531 10.3906C79.0521 10.3906 79.9062 10.7526 80.5156 11.4766C81.125 12.2005 81.4297 13.237 81.4297 14.5859V15.1875H75.7031C75.724 16.0208 75.9661 16.6953 76.4297 17.2109C76.8984 17.7214 77.4922 17.9766 78.2109 17.9766C78.7214 17.9766 79.1536 17.8724 79.5078 17.6641C79.862 17.4557 80.1719 17.1797 80.4375 16.8359L81.3203 17.5234C80.612 18.612 79.5495 19.1562 78.1328 19.1562ZM77.9531 11.5781C77.3698 11.5781 76.8802 11.7917 76.4844 12.2188C76.0885 12.6406 75.8438 13.2344 75.75 14H79.9844V13.8906C79.9427 13.1562 79.7448 12.5885 79.3906 12.1875C79.0365 11.7812 78.5573 11.5781 77.9531 11.5781ZM87.1953 11.8438C86.9766 11.8073 86.7396 11.7891 86.4844 11.7891C85.5365 11.7891 84.8932 12.1927 84.5547 13V19H83.1094V10.5469H84.5156L84.5391 11.5234C85.013 10.7682 85.6849 10.3906 86.5547 10.3906C86.8359 10.3906 87.0495 10.4271 87.1953 10.5V11.8438Z" fill="#333333"/>
<path d="M13.087 8.27826V14.2435H15.2174C16.313 14.2435 17.1043 13.6348 17.3478 12.0522H17.4087V10.1652C16.9826 8.46087 15.4 7.97391 13.087 8.27826ZM14 0C6.26957 0 0 6.26957 0 14C0 21.7304 6.26957 28 14 28C21.7304 28 28 21.7304 28 14C28 6.26957 21.7304 0 14 0ZM19.4783 15.9478C18.5652 16.8 16.8609 17.2261 15.3391 17.287H13.0261V22.887H9.61739V5.41739H15.3391C16.9217 5.41739 18.2 5.90435 19.2348 6.51304C21.7304 7.97391 22.2174 13.2696 19.4783 15.9478Z" fill="#6195CF"/>
</svg>
