<svg width="143" height="28" viewBox="0 0 143 28" fill="none" xmlns="http://www.w3.org/2000/svg">
<path d="M41.8203 14.5469V19H40.3203V7.625H44.5156C45.7604 7.625 46.7344 7.94271 47.4375 8.57812C48.1458 9.21354 48.5 10.0547 48.5 11.1016C48.5 12.2057 48.1536 13.0573 47.4609 13.6562C46.7734 14.25 45.7865 14.5469 44.5 14.5469H41.8203ZM41.8203 13.3203H44.5156C45.3177 13.3203 45.9323 13.1328 46.3594 12.7578C46.7865 12.3776 47 11.8307 47 11.1172C47 10.4401 46.7865 9.89844 46.3594 9.49219C45.9323 9.08594 45.3464 8.875 44.6016 8.85938H41.8203V13.3203ZM53.5859 19.1562C52.4401 19.1562 51.5078 18.7812 50.7891 18.0312C50.0703 17.276 49.7109 16.2682 49.7109 15.0078V14.7422C49.7109 13.9036 49.8698 13.1562 50.1875 12.5C50.5104 11.8385 50.9583 11.3229 51.5312 10.9531C52.1094 10.5781 52.7344 10.3906 53.4062 10.3906C54.5052 10.3906 55.3594 10.7526 55.9688 11.4766C56.5781 12.2005 56.8828 13.237 56.8828 14.5859V15.1875H51.1562C51.1771 16.0208 51.4193 16.6953 51.8828 17.2109C52.3516 17.7214 52.9453 17.9766 53.6641 17.9766C54.1745 17.9766 54.6068 17.8724 54.9609 17.6641C55.3151 17.4557 55.625 17.1797 55.8906 16.8359L56.7734 17.5234C56.0651 18.612 55.0026 19.1562 53.5859 19.1562ZM53.4062 11.5781C52.8229 11.5781 52.3333 11.7917 51.9375 12.2188C51.5417 12.6406 51.2969 13.2344 51.2031 14H55.4375V13.8906C55.3958 13.1562 55.1979 12.5885 54.8438 12.1875C54.4896 11.7812 54.0104 11.5781 53.4062 11.5781ZM62.6484 11.8438C62.4297 11.8073 62.1927 11.7891 61.9375 11.7891C60.9896 11.7891 60.3464 12.1927 60.0078 13V19H58.5625V10.5469H59.9688L59.9922 11.5234C60.4661 10.7682 61.138 10.3906 62.0078 10.3906C62.2891 10.3906 62.5026 10.4271 62.6484 10.5V11.8438ZM64.8203 19V11.6641H63.4844V10.5469H64.8203V9.67969C64.8203 8.77344 65.0625 8.07292 65.5469 7.57812C66.0312 7.08333 66.7161 6.83594 67.6016 6.83594C67.9349 6.83594 68.2656 6.88021 68.5938 6.96875L68.5156 8.14062C68.2708 8.09375 68.0104 8.07031 67.7344 8.07031C67.2656 8.07031 66.9036 8.20833 66.6484 8.48438C66.3932 8.75521 66.2656 9.14583 66.2656 9.65625V10.5469H68.0703V11.6641H66.2656V19H64.8203ZM72.9922 19.1562C71.8464 19.1562 70.9141 18.7812 70.1953 18.0312C69.4766 17.276 69.1172 16.2682 69.1172 15.0078V14.7422C69.1172 13.9036 69.276 13.1562 69.5938 12.5C69.9167 11.8385 70.3646 11.3229 70.9375 10.9531C71.5156 10.5781 72.1406 10.3906 72.8125 10.3906C73.9115 10.3906 74.7656 10.7526 75.375 11.4766C75.9844 12.2005 76.2891 13.237 76.2891 14.5859V15.1875H70.5625C70.5833 16.0208 70.8255 16.6953 71.2891 17.2109C71.7578 17.7214 72.3516 17.9766 73.0703 17.9766C73.5807 17.9766 74.013 17.8724 74.3672 17.6641C74.7214 17.4557 75.0312 17.1797 75.2969 16.8359L76.1797 17.5234C75.4714 18.612 74.4089 19.1562 72.9922 19.1562ZM72.8125 11.5781C72.2292 11.5781 71.7396 11.7917 71.3438 12.2188C70.9479 12.6406 70.7031 13.2344 70.6094 14H74.8438V13.8906C74.8021 13.1562 74.6042 12.5885 74.25 12.1875C73.8958 11.7812 73.4167 11.5781 72.8125 11.5781ZM81.3594 17.9766C81.875 17.9766 82.3255 17.8203 82.7109 17.5078C83.0964 17.1953 83.3099 16.8047 83.3516 16.3359H84.7188C84.6927 16.8203 84.526 17.2812 84.2188 17.7188C83.9115 18.1562 83.5 18.5052 82.9844 18.7656C82.474 19.026 81.9323 19.1562 81.3594 19.1562C80.2083 19.1562 79.2917 18.7734 78.6094 18.0078C77.9323 17.237 77.5938 16.1849 77.5938 14.8516V14.6094C77.5938 13.7865 77.7448 13.0547 78.0469 12.4141C78.349 11.7734 78.7812 11.276 79.3438 10.9219C79.9115 10.5677 80.5807 10.3906 81.3516 10.3906C82.2995 10.3906 83.0859 10.6745 83.7109 11.2422C84.3411 11.8099 84.6771 12.5469 84.7188 13.4531H83.3516C83.3099 12.9062 83.1016 12.4583 82.7266 12.1094C82.3568 11.7552 81.8984 11.5781 81.3516 11.5781C80.6172 11.5781 80.0469 11.8438 79.6406 12.375C79.2396 12.901 79.0391 13.6641 79.0391 14.6641V14.9375C79.0391 15.9115 79.2396 16.6615 79.6406 17.1875C80.0417 17.7135 80.6146 17.9766 81.3594 17.9766ZM88.3047 8.5V10.5469H89.8828V11.6641H88.3047V16.9062C88.3047 17.2448 88.375 17.5 88.5156 17.6719C88.6562 17.8385 88.8958 17.9219 89.2344 17.9219C89.401 17.9219 89.6302 17.8906 89.9219 17.8281V19C89.5417 19.1042 89.1719 19.1562 88.8125 19.1562C88.1667 19.1562 87.6797 18.9609 87.3516 18.5703C87.0234 18.1797 86.8594 17.625 86.8594 16.9062V11.6641H85.3203V10.5469H86.8594V8.5H88.3047ZM97.7109 7.625L101.43 16.9062L105.148 7.625H107.094V19H105.594V14.5703L105.734 9.78906L102 19H100.852L97.125 9.8125L97.2734 14.5703V19H95.7734V7.625H97.7109ZM109.133 14.6953C109.133 13.8672 109.294 13.1224 109.617 12.4609C109.945 11.7995 110.398 11.2891 110.977 10.9297C111.56 10.5703 112.224 10.3906 112.969 10.3906C114.12 10.3906 115.049 10.7891 115.758 11.5859C116.471 12.3828 116.828 13.4427 116.828 14.7656V14.8672C116.828 15.6901 116.669 16.4297 116.352 17.0859C116.039 17.737 115.589 18.2448 115 18.6094C114.417 18.974 113.745 19.1562 112.984 19.1562C111.839 19.1562 110.909 18.7578 110.195 17.9609C109.487 17.1641 109.133 16.1094 109.133 14.7969V14.6953ZM110.586 14.8672C110.586 15.8047 110.802 16.5573 111.234 17.125C111.672 17.6927 112.255 17.9766 112.984 17.9766C113.719 17.9766 114.302 17.6901 114.734 17.1172C115.167 16.5391 115.383 15.7318 115.383 14.6953C115.383 13.7682 115.161 13.0182 114.719 12.4453C114.281 11.8672 113.698 11.5781 112.969 11.5781C112.255 11.5781 111.68 11.862 111.242 12.4297C110.805 12.9974 110.586 13.8099 110.586 14.8672ZM120.008 10.5469L120.055 11.6094C120.701 10.7969 121.544 10.3906 122.586 10.3906C124.372 10.3906 125.273 11.3984 125.289 13.4141V19H123.844V13.4062C123.839 12.7969 123.698 12.3464 123.422 12.0547C123.151 11.763 122.727 11.6172 122.148 11.6172C121.68 11.6172 121.268 11.7422 120.914 11.9922C120.56 12.2422 120.284 12.5703 120.086 12.9766V19H118.641V10.5469H120.008ZM130.977 19.1562C129.831 19.1562 128.898 18.7812 128.18 18.0312C127.461 17.276 127.102 16.2682 127.102 15.0078V14.7422C127.102 13.9036 127.26 13.1562 127.578 12.5C127.901 11.8385 128.349 11.3229 128.922 10.9531C129.5 10.5781 130.125 10.3906 130.797 10.3906C131.896 10.3906 132.75 10.7526 133.359 11.4766C133.969 12.2005 134.273 13.237 134.273 14.5859V15.1875H128.547C128.568 16.0208 128.81 16.6953 129.273 17.2109C129.742 17.7214 130.336 17.9766 131.055 17.9766C131.565 17.9766 131.997 17.8724 132.352 17.6641C132.706 17.4557 133.016 17.1797 133.281 16.8359L134.164 17.5234C133.456 18.612 132.393 19.1562 130.977 19.1562ZM130.797 11.5781C130.214 11.5781 129.724 11.7917 129.328 12.2188C128.932 12.6406 128.688 13.2344 128.594 14H132.828V13.8906C132.786 13.1562 132.589 12.5885 132.234 12.1875C131.88 11.7812 131.401 11.5781 130.797 11.5781ZM138.609 16.8828L140.578 10.5469H142.125L138.727 20.3047C138.201 21.7109 137.365 22.4141 136.219 22.4141L135.945 22.3906L135.406 22.2891V21.1172L135.797 21.1484C136.286 21.1484 136.667 21.0495 136.938 20.8516C137.214 20.6536 137.44 20.2917 137.617 19.7656L137.938 18.9062L134.922 10.5469H136.5L138.609 16.8828Z" fill="#333333"/>
<g clip-path="url(#clip0)">
<path d="M25.3217 22.5829C21.3652 27.5742 14.2435 29.4003 8.1565 26.7829C2.06954 24.1655 -1.09567 17.5916 0.243456 11.0177C1.64346 4.99159 7.12172 0.304638 13.4522 0.000289695C20.0869 -0.243189 25.8695 3.95681 27.6956 10.2264C28.7913 16.8003 26.6608 20.7568 25.3217 22.5829ZM23.0087 19.722C23.0087 19.722 22.5826 19.4785 22.4 19.1742C22.2782 18.8699 22.2782 18.2612 22.2782 18.2612L22.2174 9.86116C22.2174 9.86116 22.2782 9.55681 22.5826 9.3742C22.8869 9.19159 23.1913 9.13072 23.1913 9.13072C23.1913 9.13072 22.4608 8.70464 21.5478 9.00899C20.3913 9.3742 20.1478 10.5307 20.1478 10.5307C20.1478 10.5307 18.5652 15.4003 17.2869 17.7133C15.9478 15.0959 14.3652 10.4699 14.3652 10.4699C14.3652 10.4699 13.7565 8.5829 11.6869 9.06985C11.8087 9.19159 12.113 9.31333 12.2348 9.55681C12.4174 9.92203 12.3565 10.409 12.3565 10.409V18.2612C12.3565 18.4438 12.1739 18.9307 11.9304 19.1742C11.5652 19.4785 11.1391 19.6003 11.1391 19.6003H14.3043C14.3043 19.6003 13.7565 19.3568 13.6348 19.1742C13.3913 18.809 13.3913 18.3829 13.3913 18.3829L13.4522 11.0786C13.4522 11.0786 16.0087 16.8003 17.3478 19.722C18.6869 17.1046 21.3043 10.5916 21.3043 10.5916V18.5046C21.3043 18.5046 21.3043 18.9916 21.0608 19.2959C20.8174 19.6612 20.3913 19.722 20.3913 19.722H23.0087ZM3.46954 9.19159C4.7478 9.43507 4.80867 9.9829 4.80867 9.9829V14.609C5.29563 14.609 5.72172 14.609 6.1478 14.4872V9.92203C6.1478 9.92203 8.64346 9.86116 9.19128 10.7133C10.3478 12.4177 9.5565 14.4264 7.73041 14.9742C6.33041 15.3394 5.29563 15.3394 3.53041 15.522C5.66085 15.7655 7.24346 15.7655 8.82607 15.2786C10.4087 14.7307 11.4435 13.6959 11.2 12.1133C10.9565 10.5307 9.86085 9.49594 8.27824 9.25246C6.63476 9.19159 5.05215 9.19159 3.46954 9.19159ZM7.42606 19.722C7.42606 19.722 6.63476 19.6003 6.33041 19.3568C6.08693 19.2351 6.08693 18.9307 6.08693 18.9307V16.2525C5.59998 16.3133 5.11302 16.3133 4.7478 16.2525L4.68693 18.9916C4.68693 18.9916 4.68693 19.2351 4.26085 19.4177C3.83476 19.6003 3.40867 19.6612 3.40867 19.6612H7.42606V19.722Z" fill="#CC302C"/>
</g>
<defs>
<clipPath id="clip0">
<rect width="28" height="28" fill="white"/>
</clipPath>
</defs>
</svg>
