<svg width="32" height="32" viewBox="0 0 32 32" fill="none" xmlns="http://www.w3.org/2000/svg">
<g clip-path="url(#clip0)">
<path d="M8.22184 8.22183C3.92502 12.5186 3.92502 19.4814 8.22184 23.7782C12.5186 28.075 19.4814 28.075 23.7782 23.7782C28.075 19.4814 28.075 12.5186 23.7782 8.22183C19.4814 3.92501 12.5186 3.92502 8.22184 8.22183ZM21.8556 14.2279C22.1504 14.2279 22.3888 14.4663 22.3888 14.7611L22.3857 17.242C22.3857 17.5368 22.1473 17.7752 21.8525 17.7752L17.7564 17.7564L17.7721 21.8556C17.7721 22.1504 17.5337 22.3887 17.2389 22.3888L14.758 22.3856C14.4632 22.3856 14.2248 22.1473 14.2248 21.8524L14.2437 17.7564L10.1444 17.772C9.84962 17.7721 9.61127 17.5337 9.61124 17.2388L9.61126 14.7549C9.61124 14.46 9.8496 14.2217 10.1445 14.2217L14.2437 14.2436L14.228 10.1444C14.228 9.84961 14.4663 9.61126 14.7612 9.61122L17.2452 9.61125C17.5399 9.61125 17.7783 9.8496 17.7783 10.1444L17.7564 14.2436L21.8556 14.2279Z" fill="#00E676"/>
</g>
<defs>
<clipPath id="clip0">
<rect width="22" height="22" fill="white" transform="translate(0.443665 16) rotate(-45)"/>
</clipPath>
</defs>
</svg>
