<svg width="22" height="22" viewBox="0 0 22 22" fill="none" xmlns="http://www.w3.org/2000/svg">
<path d="M22 11C22 17.0765 17.0747 22 11 22C4.92529 22 0 17.0765 0 11C0 4.92707 4.92529 0 11 0C17.0747 0 22 4.92707 22 11ZM11.2952 3.63709C8.87796 3.63709 7.33631 4.65535 6.12567 6.46507C5.96883 6.69953 6.0213 7.01573 6.2461 7.18616L7.78518 8.35319C8.01604 8.52823 8.34494 8.48657 8.52431 8.25908C9.31666 7.25409 9.85999 6.67128 11.066 6.67128C11.9721 6.67128 13.093 7.25443 13.093 8.13313C13.093 8.79739 12.5445 9.13853 11.6499 9.64013C10.6065 10.225 9.22584 10.953 9.22584 12.7742V12.9516C9.22584 13.2456 9.46412 13.4839 9.75803 13.4839H12.242C12.5359 13.4839 12.7742 13.2456 12.7742 12.9516V12.8925C12.7742 11.6301 16.4639 11.5775 16.4639 8.16131C16.4639 5.58862 13.7953 3.63709 11.2952 3.63709ZM11 14.6371C9.87491 14.6371 8.95971 15.5524 8.95971 16.6774C8.95971 17.8025 9.87491 18.7177 11 18.7177C12.1251 18.7177 13.0403 17.8025 13.0403 16.6774C13.0403 15.5524 12.1251 14.6371 11 14.6371Z" fill="#D2D2D2"/>
</svg>
