<svg width="22" height="18" viewBox="0 0 22 18" fill="none" xmlns="http://www.w3.org/2000/svg">
<path d="M21.45 7.33871H19.25V5.12329C19.25 4.81867 19.0025 4.56944 18.7 4.56944H17.6C17.2975 4.56944 17.05 4.81867 17.05 5.12329V7.33871H14.85C14.5475 7.33871 14.3 7.58794 14.3 7.89255V9.00024C14.3 9.30486 14.5475 9.55409 14.85 9.55409H17.05V11.7695C17.05 12.0741 17.2975 12.3233 17.6 12.3233H18.7C19.0025 12.3233 19.25 12.0741 19.25 11.7695V9.55409H21.45C21.7525 9.55409 22 9.30486 22 9.00024V7.89255C22 7.58794 21.7525 7.33871 21.45 7.33871ZM7.7 9.00024C10.1303 9.00024 12.1 7.01678 12.1 4.56944C12.1 2.12213 10.1303 0.138672 7.7 0.138672C5.26969 0.138672 3.3 2.12213 3.3 4.56944C3.3 7.01678 5.26969 9.00024 7.7 9.00024ZM10.78 10.1079H10.2059C9.44281 10.461 8.59375 10.6618 7.7 10.6618C6.80625 10.6618 5.96062 10.461 5.19406 10.1079H4.62C2.06937 10.1079 0 12.1918 0 14.7602V16.2002C0 17.1176 0.739063 17.8618 1.65 17.8618H13.75C14.6609 17.8618 15.4 17.1176 15.4 16.2002V14.7602C15.4 12.1918 13.3306 10.1079 10.78 10.1079Z" fill="#D2D2D2"/>
</svg>
