<svg width="24" height="24" viewBox="0 0 24 24" fill="none" xmlns="http://www.w3.org/2000/svg">
<circle cx="12" cy="12" r="12" fill="#00E676"/>
<path d="M12.8259 16.2803H10.2087V18.4287H8.71652V16.2803H7.09933V15.0459H8.71652V13.9756H7.09933V12.749H8.71652V7.05371H12.9118C14.1306 7.05371 15.0967 7.36361 15.8103 7.9834C16.5238 8.60319 16.8806 9.44173 16.8806 10.499C16.8806 11.6084 16.5368 12.4652 15.8493 13.0693C15.167 13.6683 14.1957 13.9704 12.9353 13.9756H10.2087V15.0459H12.8259V16.2803ZM10.2087 12.749H12.9118C13.7191 12.749 14.3337 12.5589 14.7556 12.1787C15.1775 11.7985 15.3884 11.2438 15.3884 10.5146C15.3884 9.85319 15.1696 9.31934 14.7321 8.91309C14.2946 8.50163 13.7035 8.29329 12.9587 8.28809H10.2087V12.749Z" fill="white"/>
</svg>
