<svg width="60" height="60" viewBox="0 0 60 60" fill="none" xmlns="http://www.w3.org/2000/svg">
<g clip-path="url(#clip0)">
<path d="M54.6094 10.4298C54.6094 9.85669 54.1951 9.3678 53.6303 9.27396L51.1272 8.85648C43.7494 7.62692 36.687 4.60522 30.7031 0.117302C30.2866 -0.195351 29.7135 -0.195351 29.2969 0.117302C23.313 4.60522 16.2506 7.62692 8.87284 8.85648L6.36978 9.27396C5.8049 9.3678 5.39062 9.85669 5.39062 10.4298V19.3361C5.39062 31.4728 8.86963 43.008 17.449 51.6579C23.4352 57.6926 29.3765 59.7379 29.6265 59.8216C29.7473 59.8628 29.8737 59.883 30 59.883C30.1259 59.883 30.2522 59.8624 30.3736 59.8216C30.6235 59.7379 36.5648 57.6926 42.5505 51.6579C51.1318 43.0066 54.6094 31.4705 54.6094 19.3361V10.4298ZM52.2657 19.3361C52.2657 32.0267 48.4648 42.3181 40.969 49.9243C36.1959 54.7679 31.3577 56.918 30 57.4587C28.6405 56.9171 23.8033 54.7666 19.0311 49.9243C11.5352 42.3181 7.73438 32.0267 7.73438 19.3361V11.4222L9.25827 11.1686C16.7175 9.92536 23.8701 6.93707 30 2.50958C36.1299 6.93707 43.282 9.92536 50.7418 11.1686L52.2657 11.4222V19.3361Z" fill="#00E676"/>
<path d="M11.6954 26.2793C12.122 26.1035 12.4219 25.6837 12.4219 25.1953C12.4219 24.6162 12.0012 24.1347 11.4491 24.0408C11.3846 24.0294 11.3177 24.0234 11.25 24.0234C10.6032 24.0234 10.0781 24.5485 10.0781 25.1953C10.0781 25.8421 10.6032 26.3672 11.25 26.3672C11.4084 26.3672 11.5581 26.3351 11.6954 26.2793Z" fill="#00E676"/>
<path d="M48.9743 13.23C42.5126 11.9693 36.1725 9.39757 30.64 5.79176C30.2509 5.53816 29.7487 5.53816 29.3601 5.79176C23.7694 9.4374 17.6006 11.94 11.0243 13.2304C10.4745 13.338 10.0781 13.82 10.0781 14.3803C10.0781 14.3803 10.0818 20.1505 10.09 20.5327C10.1033 21.1713 10.6252 21.6798 11.2614 21.6798C11.2697 21.6798 11.2779 21.6798 11.2862 21.6794C11.9334 21.6661 12.4471 21.1301 12.4333 20.4832C12.4255 20.1179 12.4219 15.3357 12.4219 15.3357C18.6923 13.9917 24.5979 11.5829 30.0005 8.16573C35.3563 11.5472 41.3993 14.0118 47.5782 15.3366V19.3361C47.5782 36.9005 38.9324 48.1281 29.9945 52.3958C22.6607 48.8843 15.8482 40.618 13.4491 29.5158C13.3122 28.8832 12.6892 28.4818 12.0557 28.6182C11.4235 28.7546 11.0211 29.3785 11.158 30.0111C13.8075 42.271 21.5648 51.245 29.5217 54.7583C29.6727 54.8247 29.8339 54.8581 29.995 54.8581C30.158 54.8581 30.3209 54.8242 30.4729 54.7565C40.6087 50.2329 49.9219 37.8934 49.9219 19.3361V14.3803C49.9219 13.8191 49.5246 13.3371 48.9743 13.23Z" fill="#00E676"/>
<path d="M30 28.7109C28.0614 28.7109 26.4844 30.2879 26.4844 32.2266C26.4844 34.1652 28.0614 35.7422 30 35.7422C31.9386 35.7422 33.5156 34.1652 33.5156 32.2266C33.5156 30.2879 31.9386 28.7109 30 28.7109ZM30 33.3984C29.3536 33.3984 28.8281 32.8725 28.8281 32.2266C28.8281 31.5802 29.3536 31.0547 30 31.0547C30.6464 31.0547 31.1719 31.5802 31.1719 32.2266C31.1719 32.8725 30.6459 33.3984 30 33.3984Z" fill="#00E676"/>
<path d="M30 16.9922C26.7691 16.9922 24.1406 19.6207 24.1406 22.8516V24.0234H22.9688C22.3215 24.0234 21.7969 24.548 21.7969 25.1953V39.2578C21.7969 39.9051 22.3215 40.4297 22.9688 40.4297H37.0313C37.6785 40.4297 38.2031 39.9051 38.2031 39.2578V25.1953C38.2031 24.548 37.6785 24.0234 37.0313 24.0234H35.8594V22.8516C35.8594 19.6207 33.2309 16.9922 30 16.9922ZM26.4844 22.8516C26.4844 20.9129 28.0614 19.3359 30 19.3359C31.9386 19.3359 33.5156 20.9129 33.5156 22.8516V24.0234H26.4844V22.8516ZM35.8594 38.086H24.1406V26.3672H35.8594V38.086Z" fill="#00E676"/>
</g>
<defs>
<clipPath id="clip0">
<rect width="60" height="60" fill="white"/>
</clipPath>
</defs>
</svg>
