<svg width="22" height="22" viewBox="0 0 22 22" fill="none" xmlns="http://www.w3.org/2000/svg">
<g clip-path="url(#clip0)">
<path d="M19.3737 12.5568L21.2639 13.6479C21.4797 13.7725 21.58 14.0302 21.506 14.2682C21.015 15.8491 20.1767 17.2774 19.0803 18.4636C18.9983 18.5524 18.8884 18.6107 18.7689 18.6288C18.6493 18.647 18.5271 18.624 18.4224 18.5635L16.5337 17.4726C15.7389 18.1536 14.8253 18.6818 13.8387 19.0308V21.2123C13.8387 21.3333 13.7975 21.4506 13.7219 21.5452C13.6463 21.6396 13.5408 21.7055 13.4228 21.732C11.8723 22.0802 10.2071 22.0982 8.5784 21.7324C8.33488 21.6776 8.16129 21.462 8.16129 21.2124V19.0308C7.17473 18.6819 6.26106 18.1536 5.46637 17.4726L3.57757 18.5635C3.47284 18.624 3.35067 18.647 3.23112 18.6288C3.11157 18.6107 3.00175 18.5524 2.9197 18.4636C1.82334 17.2774 0.984993 15.8491 0.493986 14.2682C0.420047 14.0302 0.520245 13.7725 0.736118 13.6479L2.62639 12.5568C2.43653 11.5277 2.43653 10.4724 2.62639 9.44322L0.736166 8.35209C0.520289 8.22752 0.420092 7.96984 0.494031 7.73183C0.985041 6.15092 1.82334 4.7227 2.91975 3.53647C3.00179 3.44765 3.11162 3.38938 3.23117 3.3712C3.35071 3.35304 3.47288 3.37607 3.57762 3.4365L5.46642 4.5274C6.26112 3.84649 7.1748 3.31823 8.16136 2.96922V0.787724C8.16136 0.666735 8.20254 0.549349 8.27816 0.454884C8.35372 0.360418 8.45925 0.294499 8.5773 0.267974C10.1277 -0.0802101 11.7929 -0.0982184 13.4216 0.267664C13.6651 0.322353 13.8387 0.53805 13.8387 0.787634V2.96917C14.8254 3.31817 15.739 3.84642 16.5337 4.52736L18.4225 3.43645C18.5272 3.37602 18.6494 3.35299 18.7689 3.37116C18.8885 3.38933 18.9983 3.44761 19.0804 3.53643C20.1767 4.72265 21.0151 6.15088 21.5061 7.73176C21.58 7.96977 21.4798 8.22745 21.2639 8.35209L19.3737 9.44316C19.5635 10.4723 19.5635 11.5277 19.3737 12.5568ZM14.5484 11C14.5484 9.04344 12.9566 7.45161 11 7.45161C9.04342 7.45161 7.45165 9.04344 7.45165 11C7.45165 12.9566 9.04342 14.5484 11 14.5484C12.9566 14.5484 14.5484 12.9566 14.5484 11Z" fill="#D2D2D2"/>
</g>
<defs>
<clipPath id="clip0">
<rect width="22" height="22" fill="white"/>
</clipPath>
</defs>
</svg>
