<svg width="22" height="19" viewBox="0 0 22 19" fill="none" xmlns="http://www.w3.org/2000/svg">
<path d="M19.8172 4.07143H3.4375C3.05766 4.07143 2.75 3.76777 2.75 3.39286C2.75 3.01795 3.05766 2.71429 3.4375 2.71429H19.9375C20.3173 2.71429 20.625 2.41062 20.625 2.03571C20.625 0.911403 19.7016 0 18.5625 0H2.75C1.23106 0 0 1.21507 0 2.71429V16.2857C0 17.7849 1.23106 19 2.75 19H19.8172C21.0212 19 22 18.0869 22 16.9643V6.10714C22 4.98453 21.0212 4.07143 19.8172 4.07143ZM17.875 12.8929C17.1157 12.8929 16.5 12.2851 16.5 11.5357C16.5 10.7863 17.1157 10.1786 17.875 10.1786C18.6343 10.1786 19.25 10.7863 19.25 11.5357C19.25 12.2851 18.6343 12.8929 17.875 12.8929Z" fill="#D2D2D2"/>
</svg>
