<svg width="22" height="19" viewBox="0 0 22 19" fill="none" xmlns="http://www.w3.org/2000/svg">
<path d="M19.9375 19H2.0625C0.923395 19 0 18.0886 0 16.9643V2.03571C0 0.911403 0.923395 0 2.0625 0H19.9375C21.0766 0 22 0.911403 22 2.03571V16.9643C22 18.0886 21.0766 19 19.9375 19ZM5.5 3.73214C4.55078 3.73214 3.78125 4.49167 3.78125 5.42857C3.78125 6.36547 4.55078 7.125 5.5 7.125C6.44922 7.125 7.21875 6.36547 7.21875 5.42857C7.21875 4.49167 6.44922 3.73214 5.5 3.73214ZM5.5 7.80357C4.55078 7.80357 3.78125 8.5631 3.78125 9.5C3.78125 10.4369 4.55078 11.1964 5.5 11.1964C6.44922 11.1964 7.21875 10.4369 7.21875 9.5C7.21875 8.5631 6.44922 7.80357 5.5 7.80357ZM5.5 11.875C4.55078 11.875 3.78125 12.6345 3.78125 13.5714C3.78125 14.5083 4.55078 15.2679 5.5 15.2679C6.44922 15.2679 7.21875 14.5083 7.21875 13.5714C7.21875 12.6345 6.44922 11.875 5.5 11.875ZM17.875 6.10714V4.75C17.875 4.46894 17.6441 4.24107 17.3594 4.24107H8.76562C8.48086 4.24107 8.25 4.46894 8.25 4.75V6.10714C8.25 6.3882 8.48086 6.61607 8.76562 6.61607H17.3594C17.6441 6.61607 17.875 6.3882 17.875 6.10714ZM17.875 10.1786V8.82143C17.875 8.54036 17.6441 8.3125 17.3594 8.3125H8.76562C8.48086 8.3125 8.25 8.54036 8.25 8.82143V10.1786C8.25 10.4596 8.48086 10.6875 8.76562 10.6875H17.3594C17.6441 10.6875 17.875 10.4596 17.875 10.1786ZM17.875 14.25V12.8929C17.875 12.6118 17.6441 12.3839 17.3594 12.3839H8.76562C8.48086 12.3839 8.25 12.6118 8.25 12.8929V14.25C8.25 14.5311 8.48086 14.7589 8.76562 14.7589H17.3594C17.6441 14.7589 17.875 14.5311 17.875 14.25Z" fill="#D2D2D2"/>
</svg>
