<svg width="64" height="62" viewBox="0 0 64 62" fill="none" xmlns="http://www.w3.org/2000/svg">
<path d="M63.8766 33.9567C63.302 28.1769 60.7198 22.7279 56.6055 18.6135C53.0895 15.0976 48.7859 12.8382 44.2576 11.8335V8.65746C46.1071 8.19733 47.4819 6.52318 47.4819 4.53327C47.4819 2.18973 45.5753 0.283203 43.2318 0.283203H34.2317C31.8881 0.283203 29.9816 2.18973 29.9816 4.53327C29.9816 6.52305 31.3564 8.1972 33.2058 8.65746V11.8424C28.6913 12.8513 24.402 15.1076 20.896 18.6136C20.1287 19.3809 19.4212 20.1858 18.7735 21.0223C18.7422 21.0199 18.7108 21.0175 18.6788 21.0175H9.77103C9.08077 21.0175 8.52101 21.5772 8.52101 22.2675C8.52101 22.9579 9.08077 23.5176 9.77103 23.5176H17.0726C16.1561 25.052 15.4171 26.6634 14.8546 28.3221H1.25002C0.559759 28.3221 0 28.8818 0 29.5722C0 30.2626 0.559759 30.8222 1.25002 30.8222H14.1482C13.788 32.4036 13.5812 34.013 13.5278 35.6269H8.00012C7.30986 35.6269 6.75011 36.1865 6.75011 36.8769C6.75011 37.5673 7.30986 38.1269 8.00012 38.1269H13.5677C13.6732 39.7449 13.9333 41.3545 14.3482 42.9316H6.2501C5.55984 42.9316 5.00008 43.4913 5.00008 44.1816C5.00008 44.872 5.55984 45.4317 6.2501 45.4317H15.146C16.3723 48.6756 18.2887 51.716 20.896 54.3233C25.0143 58.4416 30.4688 61.0244 36.2547 61.596C37.0805 61.6775 37.9068 61.7179 38.7321 61.7179C43.6099 61.7179 48.4258 60.3063 52.5121 57.6452C53.0906 57.2685 53.2542 56.4941 52.8774 55.9156C52.5007 55.3371 51.7263 55.1734 51.1478 55.5502C42.203 61.3749 30.2237 60.1155 22.6637 52.5555C13.7933 43.6851 13.7933 29.252 22.6637 20.3815C31.534 11.5113 45.9671 11.5113 54.8376 20.3815C62.3876 27.9316 63.6539 39.9007 57.8484 48.8411C57.4724 49.4201 57.637 50.1944 58.2159 50.5702C58.7952 50.9463 59.5692 50.7816 59.9451 50.2026C63.0469 45.4257 64.4431 39.6562 63.8766 33.9567ZM32.4816 4.53339C32.4816 3.56838 33.2666 2.78337 34.2317 2.78337H43.2318C44.1968 2.78337 44.9818 3.56838 44.9818 4.53339C44.9818 5.49841 44.1968 6.28342 43.2318 6.28342H43.0075H34.4558H34.2317C33.2666 6.28342 32.4816 5.49829 32.4816 4.53339ZM35.7058 11.4126V8.78346H41.7575V11.4081C39.748 11.1691 37.715 11.1706 35.7058 11.4126Z" fill="#00E676"/>
<path d="M55.7222 52.1885C55.3922 52.1885 55.0709 52.3222 54.8385 52.5547C54.6048 52.7872 54.4722 53.1097 54.4722 53.4385C54.4722 53.7672 54.6048 54.0897 54.8385 54.3222C55.0709 54.556 55.3923 54.6885 55.7222 54.6885C56.0509 54.6885 56.3722 54.556 56.6059 54.3222C56.8384 54.0897 56.9722 53.7672 56.9722 53.4385C56.9722 53.1097 56.8385 52.7872 56.6059 52.5547C56.3722 52.3222 56.0508 52.1885 55.7222 52.1885Z" fill="#00E676"/>
<path d="M38.7508 17.0771C28.0584 17.0771 19.3594 25.776 19.3594 36.4686C19.3594 47.1611 28.0584 55.86 38.7508 55.86C49.4432 55.86 58.1422 47.1611 58.1422 36.4686C58.1422 25.776 49.4432 17.0771 38.7508 17.0771ZM38.7508 53.36C29.4368 53.36 21.8594 45.7825 21.8594 36.4686C21.8594 27.1547 29.4368 19.5772 38.7508 19.5772C48.0648 19.5772 55.6422 27.1547 55.6422 36.4686C55.6422 45.7825 48.0648 53.36 38.7508 53.36Z" fill="#00E676"/>
<path d="M46.6579 26.7938L40.4666 32.9851C39.9488 32.7291 39.3665 32.5844 38.7508 32.5844C38.1351 32.5844 37.5528 32.7291 37.035 32.9851L34.2641 30.2141C33.7759 29.726 32.9846 29.726 32.4962 30.2141C32.0081 30.7023 32.0081 31.4938 32.4962 31.9819L35.2671 34.7528C35.011 35.2706 34.8665 35.853 34.8665 36.4686C34.8665 38.6104 36.6089 40.3529 38.7508 40.3529C40.8927 40.3529 42.6351 38.6104 42.6351 36.4686C42.6351 35.853 42.4905 35.2706 42.2345 34.7528L48.2441 28.7432L48.4257 28.5616C48.9138 28.0735 48.9138 27.282 48.4257 26.7938C47.9376 26.3057 47.1463 26.3057 46.6579 26.7938ZM38.7508 37.853C37.9876 37.853 37.3665 37.232 37.3665 36.4687C37.3665 35.7055 37.9876 35.0845 38.7508 35.0845C39.5141 35.0845 40.1351 35.7055 40.1351 36.4687C40.1351 37.232 39.5141 37.853 38.7508 37.853Z" fill="#00E676"/>
<path d="M52.1159 35.2334H50.9578C50.2675 35.2334 49.7078 35.793 49.7078 36.4834C49.7078 37.1738 50.2675 37.7334 50.9578 37.7334H52.1159C52.8061 37.7334 53.3659 37.1738 53.3659 36.4834C53.3659 35.793 52.8061 35.2334 52.1159 35.2334Z" fill="#00E676"/>
<path d="M26.5437 35.2031H25.3857C24.6955 35.2031 24.1357 35.7628 24.1357 36.4531C24.1357 37.1435 24.6955 37.7031 25.3857 37.7031H26.5437C27.234 37.7031 27.7937 37.1435 27.7937 36.4531C27.7937 35.7628 27.234 35.2031 26.5437 35.2031Z" fill="#00E676"/>
<path d="M38.7659 25.5115C39.4561 25.5115 40.0159 24.9519 40.0159 24.2615V23.1035C40.0159 22.4131 39.4561 21.8535 38.7659 21.8535C38.0756 21.8535 37.5159 22.4131 37.5159 23.1035V24.2615C37.5159 24.9519 38.0756 25.5115 38.7659 25.5115Z" fill="#00E676"/>
<path d="M38.7354 47.4258C38.0451 47.4258 37.4854 47.9854 37.4854 48.6758V49.8338C37.4854 50.5242 38.0451 51.0838 38.7354 51.0838C39.4256 51.0838 39.9854 50.5242 39.9854 49.8338V48.6758C39.9854 47.9854 39.4256 47.4258 38.7354 47.4258Z" fill="#00E676"/>
<path d="M1.25 42.9307C0.92125 42.9307 0.59875 43.0644 0.36625 43.2969C0.13375 43.5294 0 43.8519 0 44.1807C0 44.5107 0.133625 44.8319 0.36625 45.0644C0.598875 45.2969 0.92125 45.4307 1.25 45.4307C1.57875 45.4307 1.90125 45.2969 2.13363 45.0644C2.36613 44.8319 2.5 44.5094 2.5 44.1807C2.5 43.8519 2.36625 43.5294 2.13363 43.2969C1.90125 43.0644 1.57875 42.9307 1.25 42.9307Z" fill="#00E676"/>
</svg>
