<svg width="36" height="27" viewBox="0 0 36 27" fill="none" xmlns="http://www.w3.org/2000/svg">
<path d="M30.24 11.8466C30.4706 11.2448 30.6 10.5866 30.6 9.90039C30.6 6.91914 28.1812 4.50039 25.2 4.50039C24.0919 4.50039 23.0569 4.83789 22.2019 5.41164C20.6438 2.71164 17.7356 0.900391 14.4 0.900391C9.4275 0.900391 5.4 4.92789 5.4 9.90039C5.4 10.0523 5.40562 10.2041 5.41125 10.356C2.26125 11.4641 0 14.4678 0 18.0003C0 22.4722 3.62812 26.1003 8.1 26.1003H28.8C32.7769 26.1003 36 22.8772 36 18.9003C36 15.4185 33.525 12.5103 30.24 11.8466ZM22.7644 16.836L16.8356 22.7647C16.4869 23.1135 15.9131 23.1135 15.5644 22.7647L9.63562 16.836C9.0675 16.2678 9.4725 15.3003 10.2712 15.3003H13.95V9.00039C13.95 8.50539 14.355 8.10039 14.85 8.10039H17.55C18.045 8.10039 18.45 8.50539 18.45 9.00039V15.3003H22.1287C22.9275 15.3003 23.3325 16.2678 22.7644 16.836Z" fill="#00E676"/>
</svg>
