<svg width="71" height="28" viewBox="0 0 71 28" fill="none" xmlns="http://www.w3.org/2000/svg">
<path d="M44.0859 17.0078L47.3359 7.625H48.9766L44.7578 19H43.4297L39.2188 7.625H40.8516L44.0859 17.0078ZM51.8516 19H50.4062V10.5469H51.8516V19ZM50.2891 8.30469C50.2891 8.07031 50.3594 7.8724 50.5 7.71094C50.6458 7.54948 50.8594 7.46875 51.1406 7.46875C51.4219 7.46875 51.6354 7.54948 51.7812 7.71094C51.9271 7.8724 52 8.07031 52 8.30469C52 8.53906 51.9271 8.73438 51.7812 8.89062C51.6354 9.04688 51.4219 9.125 51.1406 9.125C50.8594 9.125 50.6458 9.04688 50.5 8.89062C50.3594 8.73438 50.2891 8.53906 50.2891 8.30469ZM59.0938 16.7578C59.0938 16.3672 58.9453 16.0651 58.6484 15.8516C58.3568 15.6328 57.8438 15.4453 57.1094 15.2891C56.3802 15.1328 55.7995 14.9453 55.3672 14.7266C54.9401 14.5078 54.6224 14.2474 54.4141 13.9453C54.2109 13.6432 54.1094 13.2839 54.1094 12.8672C54.1094 12.1745 54.401 11.5885 54.9844 11.1094C55.5729 10.6302 56.3229 10.3906 57.2344 10.3906C58.1927 10.3906 58.9688 10.638 59.5625 11.1328C60.1615 11.6276 60.4609 12.2604 60.4609 13.0312H59.0078C59.0078 12.6354 58.8385 12.2943 58.5 12.0078C58.1667 11.7214 57.7448 11.5781 57.2344 11.5781C56.7083 11.5781 56.2969 11.6927 56 11.9219C55.7031 12.151 55.5547 12.4505 55.5547 12.8203C55.5547 13.1693 55.6927 13.4323 55.9688 13.6094C56.2448 13.7865 56.7422 13.9557 57.4609 14.1172C58.1849 14.2786 58.7708 14.4714 59.2188 14.6953C59.6667 14.9193 59.9974 15.1901 60.2109 15.5078C60.4297 15.8203 60.5391 16.2031 60.5391 16.6562C60.5391 17.4115 60.237 18.0182 59.6328 18.4766C59.0286 18.9297 58.2448 19.1562 57.2812 19.1562C56.6042 19.1562 56.0052 19.0365 55.4844 18.7969C54.9635 18.5573 54.5547 18.224 54.2578 17.7969C53.9661 17.3646 53.8203 16.8984 53.8203 16.3984H55.2656C55.2917 16.8828 55.4844 17.2682 55.8438 17.5547C56.2083 17.8359 56.6875 17.9766 57.2812 17.9766C57.8281 17.9766 58.2656 17.8672 58.5938 17.6484C58.9271 17.4245 59.0938 17.1276 59.0938 16.7578ZM67.6406 19C67.5573 18.8333 67.4896 18.5365 67.4375 18.1094C66.7656 18.8073 65.9635 19.1562 65.0312 19.1562C64.1979 19.1562 63.513 18.9219 62.9766 18.4531C62.4453 17.9792 62.1797 17.3802 62.1797 16.6562C62.1797 15.776 62.513 15.0938 63.1797 14.6094C63.8516 14.1198 64.7943 13.875 66.0078 13.875H67.4141V13.2109C67.4141 12.7057 67.263 12.3047 66.9609 12.0078C66.6589 11.7057 66.2135 11.5547 65.625 11.5547C65.1094 11.5547 64.6771 11.6849 64.3281 11.9453C63.9792 12.2057 63.8047 12.5208 63.8047 12.8906H62.3516C62.3516 12.4688 62.5 12.0625 62.7969 11.6719C63.099 11.276 63.5052 10.9635 64.0156 10.7344C64.5312 10.5052 65.0964 10.3906 65.7109 10.3906C66.6849 10.3906 67.4479 10.6354 68 11.125C68.5521 11.6094 68.8385 12.2786 68.8594 13.1328V17.0234C68.8594 17.7995 68.9583 18.4167 69.1562 18.875V19H67.6406ZM65.2422 17.8984C65.6953 17.8984 66.125 17.7812 66.5312 17.5469C66.9375 17.3125 67.2318 17.0078 67.4141 16.6328V14.8984H66.2812C64.5104 14.8984 63.625 15.4167 63.625 16.4531C63.625 16.9062 63.776 17.2604 64.0781 17.5156C64.3802 17.7708 64.7682 17.8984 65.2422 17.8984Z" fill="#333333"/>
<g clip-path="url(#clip0)">
<path d="M11.4 17.8992H9.45581L10.6718 11.123H12.6159L11.4 17.8992Z" fill="#00579F"/>
<path d="M18.4477 11.2885C18.0642 11.1514 17.456 11 16.7039 11C14.784 11 13.432 11.9227 13.4237 13.2418C13.4078 14.2151 14.3917 14.7556 15.1276 15.0801C15.8798 15.4117 16.1355 15.6282 16.1355 15.9238C16.1278 16.3777 15.5277 16.587 14.9679 16.587C14.1917 16.587 13.7758 16.4791 13.1438 16.2265L12.8878 16.1183L12.6157 17.6394C13.0717 17.8266 13.9118 17.9927 14.784 18C16.824 18 18.152 17.0916 18.1678 15.6859C18.1755 14.9145 17.656 14.3234 16.5358 13.8404C15.8559 13.5304 15.4394 13.3213 15.4394 13.0041C15.4474 12.7157 15.7916 12.4203 16.5592 12.4203C17.1913 12.4058 17.6557 12.5428 18.0075 12.6798L18.1833 12.7517L18.4477 11.2885Z" fill="#00579F"/>
<path d="M21.0316 15.4987C21.1917 15.1094 21.8078 13.6027 21.8078 13.6027C21.7997 13.6172 21.9676 13.2063 22.0636 12.954L22.1995 13.5379C22.1995 13.5379 22.5677 15.1599 22.6476 15.4987C22.3438 15.4987 21.4156 15.4987 21.0316 15.4987ZM23.4315 11.123H21.9276C21.4639 11.123 21.1116 11.2455 20.9115 11.6853L18.0237 17.8991H20.0636C20.0636 17.8991 20.3995 17.0628 20.4717 16.8827C20.6955 16.8827 22.6799 16.8827 22.9678 16.8827C23.0236 17.1206 23.1998 17.8991 23.1998 17.8991H24.9999L23.4315 11.123Z" fill="#00579F"/>
<path d="M7.83197 11.123L5.92798 15.7438L5.71993 14.8066C5.36792 13.7253 4.26395 12.5505 3.03198 11.9663L4.77596 17.892H6.83187L9.88776 11.123H7.83197Z" fill="#00579F"/>
<path d="M4.15998 11.123H1.032L1 11.26C3.44002 11.8223 5.05599 13.1777 5.71993 14.8069L5.03994 11.6926C4.92799 11.2599 4.58396 11.1373 4.15998 11.123Z" fill="#FAA61A"/>
</g>
<path d="M14 0C6.26957 0 0 6.26957 0 14C0 21.7304 6.26957 28 14 28C21.7304 28 28 21.7304 28 14C28 6.26957 21.7304 0 14 0ZM13.9391 27.3304C6.57391 27.3304 0.547826 21.3652 0.547826 13.9391C0.547826 6.51304 6.51304 0.547826 13.9391 0.547826C21.3043 0.547826 27.3304 6.51304 27.3304 13.9391C27.3304 21.3652 21.3652 27.3304 13.9391 27.3304Z" fill="#353535"/>
<defs>
<clipPath id="clip0">
<rect width="24" height="7" fill="white" transform="translate(1 11)"/>
</clipPath>
</defs>
</svg>
