<svg width="88" height="35" viewBox="0 0 88 35" fill="none" xmlns="http://www.w3.org/2000/svg">
<g clip-path="url(#clip0)">
<path d="M42.7236 24.943C42.6564 24.6122 42.3205 24.4798 41.9847 24.4798C41.716 24.4798 41.5144 24.546 41.3129 24.7445C41.2457 24.8106 41.2457 24.943 41.2457 25.0753C41.2457 25.4061 41.6488 25.4723 42.0518 25.5384C42.5221 25.6046 43.1266 25.7369 43.261 26.2662V26.4647C43.261 27.1263 42.5892 27.5233 41.9175 27.5233C41.3801 27.5233 40.7083 27.1925 40.6411 26.597V26.5309H41.1786V26.597C41.2457 26.9278 41.5816 27.0602 41.9175 27.0602C42.3205 27.0602 42.7236 26.8617 42.7236 26.4647V26.3324C42.6564 26.0677 42.3205 26.0016 41.9175 26.0016C41.3801 25.9354 40.7083 25.8031 40.6411 25.0753C40.6411 24.8106 40.7083 24.6122 40.8427 24.4137C41.1114 24.0829 41.5144 23.9505 41.9175 23.9505C42.4549 23.9505 43.0595 24.2152 43.1266 24.8768L42.7236 24.943ZM44.4702 27.5233H43.9328V24.0167H44.3358L45.545 25.7369L46.687 24.0167H47.09V27.5233H46.5526V25.0753L45.6793 26.3985H45.3434L44.4702 25.0753V27.5233ZM49.3068 24.4137H48.9037L47.4931 27.4571H48.0305L48.3663 26.9278H49.777L50.1129 27.4571H50.6503L49.3068 24.4137ZM48.5679 26.597L49.1053 25.2076L49.6427 26.597H48.5679ZM51.8595 25.7369H52.4641C52.8671 25.7369 53.1358 25.4061 53.1358 25.1415C53.1358 24.8106 52.9343 24.4798 52.4641 24.4798H51.6579V27.5233H51.1205V24.0167H52.3969C53.1358 24.0167 53.5389 24.6122 53.5389 25.1415C53.5389 25.6046 53.203 26.1339 52.5984 26.2001L53.7404 27.5233H53.0686L51.7923 26.0016L51.8595 25.7369ZM54.8152 27.5233V24.4798H53.7404V24.0167H56.4274V24.4798H55.3526V27.5233H54.8152ZM60.9954 25.8692C60.7938 26.4647 60.5923 26.994 60.3908 27.5233H60.0549L58.8457 24.0167H59.3831L60.2564 26.597L60.861 24.943H61.2641L61.8686 26.597C62.1373 25.7369 62.4732 24.8106 62.7419 24.0829H63.145L61.9358 27.5895H61.5999L60.9954 25.8692ZM64.8915 24.4137H64.4885L63.0778 27.4571H63.6152L63.9511 26.9278H65.3618L65.6976 27.4571H66.235L64.8915 24.4137ZM64.2198 26.597L64.7572 25.2076L65.2946 26.597H64.2198ZM67.2427 26.994H68.9221V27.5233H66.7725V24.0167H67.2427V26.994ZM69.9297 26.994H71.5419V27.5233H69.3923V24.0167H69.9297V26.994ZM72.5496 26.994H74.1618V27.5233H72.0121V24.0167H74.1618V24.4798H72.5496V25.4723H74.1618V26.0016H72.5496V26.994ZM75.5053 27.5233V24.4798H74.4305V24.0167H77.1175V24.4798H76.0427V27.5233H75.5053ZM47.1572 16.5403C49.374 14.8863 48.1648 11.3796 45.2091 11.3796H40.574V22.8919H45.6793C47.8961 22.8919 48.9709 21.1055 48.9709 19.3853C48.9709 18.3929 48.5007 17.0696 47.1572 16.5403ZM42.3205 12.9014H45.2763C47.1572 12.9014 47.0228 15.9449 45.2763 15.9449H42.3205V12.9014ZM45.6793 21.1055H42.3205V17.7312H45.6793C46.8213 17.7312 47.3587 18.5252 47.3587 19.3853C47.3587 20.2454 46.7541 21.1055 45.6793 21.1055ZM52.6656 21.1055H57.9725V22.6934H50.9862V11.3135H57.9053V12.9675H52.6656V16.1433H57.8381V17.7312H52.6656V21.1055ZM62.3389 17.0035H64.287C65.6976 17.0035 66.3694 16.011 66.3694 15.0186C66.3694 14.0261 65.6976 12.9014 64.287 12.9014H61.7343V22.6934H60.1221V11.3135H64.287C66.7725 11.3135 67.9816 13.2322 67.9816 15.0186C67.9816 16.6065 66.974 18.1282 65.0259 18.459L68.6534 22.6934H66.5037L62.3389 17.7312V17.0035ZM72.0121 22.6934V12.9014H68.519V11.3135H77.1175V12.9014H73.6244V22.6934H72.0121ZM79.5358 11.3135L82.7602 16.4742L86.0518 11.3135H87.9999L83.6335 18.1282V22.6934H81.9541V18.1282L77.6549 11.3135H79.5358ZM23.0411 18.459C23.4442 18.459 24.5862 18.0621 27.4747 20.7747C30.3633 23.4874 28.7511 27.391 28.348 27.9203C27.945 28.3834 26.6015 29.7067 24.7877 29.6405C22.974 29.5743 20.9587 24.943 20.69 23.8844C20.3541 22.7596 19.4808 18.6575 23.0411 18.459Z" fill="black"/>
<path d="M23.7802 26.0684C24.9674 26.0684 25.9299 25.1205 25.9299 23.9512C25.9299 22.7819 24.9674 21.834 23.7802 21.834C22.593 21.834 21.6306 22.7819 21.6306 23.9512C21.6306 25.1205 22.593 26.0684 23.7802 26.0684Z" fill="white"/>
<path d="M23.5117 22.6942C22.7056 22.6942 21.9667 23.3558 21.9667 24.2159C21.9667 25.0099 22.6384 25.7377 23.5117 25.7377C24.385 25.7377 25.0568 25.0761 25.0568 24.2159C25.0568 23.422 24.385 22.6942 23.5117 22.6942ZM23.9148 23.4882C23.9148 23.2897 24.0491 23.1573 24.2507 23.1573C24.4522 23.1573 24.5865 23.2897 24.5865 23.4882C24.5865 23.6866 24.4522 23.819 24.2507 23.819C24.0491 23.819 23.9148 23.6866 23.9148 23.4882ZM24.5194 24.4806C24.385 24.4806 24.2507 24.3483 24.2507 24.2159C24.2507 24.0836 24.385 23.9513 24.5194 23.9513C24.6537 23.9513 24.7881 24.0836 24.7881 24.2159C24.7209 24.3483 24.6537 24.4806 24.5194 24.4806ZM3.02318 17.9305C3.02318 17.9305 4.6354 12.5052 10.1438 9.13088C10.1438 9.13088 4.76975 3.83788 0.873563 8.73391C-1.61193 11.9759 1.74685 16.7396 3.02318 17.9305ZM32.9835 17.9305C32.9835 17.9305 31.3713 12.5052 25.8629 9.13088C25.8629 9.13088 31.2369 3.83788 35.1331 8.73391C37.6186 11.9759 34.2598 16.7396 32.9835 17.9305ZM13.0995 18.4598C12.6965 18.4598 11.5545 18.0628 8.66593 20.7755C5.77738 23.4882 7.38959 27.3917 7.79265 27.921C8.1957 28.3842 9.53921 29.7074 11.353 29.6413C13.1667 29.5751 15.182 24.9437 15.4507 23.8851C15.7865 22.7604 16.6598 18.6583 13.0995 18.4598Z" fill="black"/>
<path d="M12.3603 26.0684C13.5475 26.0684 14.5099 25.1205 14.5099 23.9512C14.5099 22.7819 13.5475 21.834 12.3603 21.834C11.1731 21.834 10.2107 22.7819 10.2107 23.9512C10.2107 25.1205 11.1731 26.0684 12.3603 26.0684Z" fill="white"/>
<path d="M12.629 22.6934C11.8229 22.6934 11.084 23.355 11.084 24.2151C11.084 25.0091 11.7557 25.7368 12.629 25.7368C13.5023 25.7368 14.1741 25.0752 14.1741 24.2151C14.1741 23.4211 13.4351 22.6934 12.629 22.6934ZM11.6886 24.4797C11.5542 24.4797 11.4199 24.3474 11.4199 24.2151C11.4199 24.0828 11.5542 23.9504 11.6886 23.9504C11.8229 23.9504 11.9573 24.0828 11.9573 24.2151C11.8901 24.3474 11.8229 24.4797 11.6886 24.4797ZM11.8901 23.8181C11.6886 23.8181 11.5542 23.6858 11.5542 23.4873C11.5542 23.2888 11.6886 23.1565 11.8901 23.1565C12.0916 23.1565 12.226 23.2888 12.226 23.4873C12.226 23.6858 12.0916 23.8181 11.8901 23.8181ZM17.9359 29.5081C17.9359 29.5081 14.2412 29.3758 14.7115 30.5005C15.1145 31.5591 17.9359 32.3531 17.9359 32.3531C19.0107 32.2869 21.2275 31.3607 21.2947 30.3682C21.3619 29.3758 17.9359 29.5081 17.9359 29.5081Z" fill="black"/>
<path d="M17.1299 30.17C16.7268 30.1039 15.9879 30.0377 15.3833 30.4347C15.3833 30.4347 15.3833 29.9716 17.1299 29.9716C17.6673 29.9054 17.5329 30.17 17.1299 30.17Z" fill="white"/>
</g>
<defs>
<clipPath id="clip0">
<rect width="88" height="35" fill="white"/>
</clipPath>
</defs>
</svg>
